<?xml version="1.0" encoding="UTF-8"?>
<svg id="Capa_1" xmlns="http://www.w3.org/2000/svg" version="1.1" viewBox="0 0 1459.15 881.71">
  <!-- Generator: Adobe Illustrator 30.0.0, SVG Export Plug-In . SVG Version: 2.1.1 Build 123)  -->
  <defs>
    <style>
      .st0 {
        fill: #fff42c;
      }

      .st1 {
        fill: #ff299b;
      }

      .st2 {
        fill: #02e5ff;
      }
    </style>
  </defs>
  <path d="M1310.74,296.67c-55.52,80.62-192.3,252.35-484.08,496.75-15.61,13.11-35.47,20.29-55.84,20.29-15.09,0-30.02-3.97-43.13-11.52-82.37-47.34-303.18-185.82-574.67-448.73-19.26-18.67-26.25-46.15-18.23-71.72,8.02-25.54,29.43-44.08,55.88-48.37,83.36-13.54,237.45-33.56,466.53-44.12v14.57c44.2-2.07,91.22-3.77,141.15-5.04v-14.5c57.39-1.43,118.55-2.22,183.52-2.22,87.85,0,179.67,1.43,272.84,4.33,26.25.8,49.01,15.29,60.84,38.72,11.8,23.35,10.01,50.08-4.81,71.57Z"/>
  <path class="st0" d="M1299.98,279.27c-70.05,101.63-217.04,272.12-480.42,492.74-21.41,17.91-51.71,20.65-75.9,6.75-86.62-49.84-303.02-186.58-570.65-445.76-29.63-28.71-13.94-78.91,26.81-85.51,87.77-14.3,238.05-33.32,457.39-43.69,44.2-2.07,91.22-3.77,141.15-5.04,133.12-3.38,286.66-3.42,461.6,1.95,39.71,1.23,62.55,45.87,40.03,78.56Z"/>
  <path d="M396.26,387.47c-69.87,0-127.34-52.53-133.7-122.18-3.26-35.75,7.59-70.63,30.56-98.21,22.97-27.58,55.3-44.57,91.06-47.84,4.08-.37,8.24-.56,12.35-.56,69.86,0,127.34,52.53,133.7,122.18,6.73,73.8-47.83,139.31-121.62,146.05-4.12.37-8.27.56-12.35.56Z"/>
  <path d="M630.44,376.27c-64.43,0-117.44-48.44-123.31-112.68-3-32.97,7-65.14,28.19-90.58,21.18-25.44,51-41.11,83.97-44.12,3.77-.34,7.61-.52,11.38-.52,64.44,0,117.44,48.44,123.31,112.68,3,32.97-7,65.14-28.19,90.58-21.18,25.44-51,41.11-83.97,44.12-3.77.34-7.61.52-11.38.52Z"/>
  <path d="M1086.4,359.58c-69.86,0-127.34-52.53-133.7-122.18-3.26-35.75,7.6-70.63,30.57-98.21,22.97-27.58,55.3-44.57,91.05-47.84,4.08-.37,8.24-.56,12.35-.56,69.86,0,127.34,52.53,133.7,122.18,6.73,73.8-47.83,139.31-121.62,146.05-4.12.37-8.27.56-12.35.56Z"/>
  <path d="M853.2,374.38c-64.43,0-117.44-48.44-123.3-112.68-3-32.97,7-65.14,28.19-90.58,21.18-25.44,51-41.1,83.97-44.11,3.77-.34,7.61-.52,11.39-.52,64.43,0,117.44,48.44,123.3,112.68,3.01,32.97-7,65.14-28.19,90.57-21.18,25.44-51,41.11-83.97,44.12-3.77.34-7.61.52-11.39.52Z"/>
  <circle class="st2" cx="406.07" cy="246.04" r="114.96"/>
  <circle class="st2" cx="640.24" cy="245.29" r="104.51"/>
  <circle class="st2" cx="863" cy="243.41" r="104.51"/>
  <circle class="st2" cx="1096.21" cy="218.15" r="114.96"/>
  <path d="M1238.14,664.37c-7.97-.02-15.86-.58-23.47-1.68-7.6-1.1-15.09-2.76-22.26-4.94-14.3-4.31-27.95-10.49-40.55-18.36-12.57-7.88-24.09-17.48-34.25-28.55-10.1-11.01-18.83-23.4-25.93-36.84-7.06-13.35-12.61-27.83-16.51-43.05-3.93-15.34-5.92-31.5-5.92-48.02s1.84-32.1,5.48-47.57c3.64-15.48,8.96-30.3,15.81-44.04,6.86-13.78,15.3-26.64,25.07-38.21,9.81-11.65,21.01-21.88,33.3-30.41,5.64-3.9,11.53-7.45,17.53-10.53,3.69-1.89,7.47-3.65,11.24-5.23,3.87-1.63,7.73-3.07,11.6-4.35,14.55-4.81,30.1-7.24,46.21-7.24,25.2,0,48.62,4.29,69.61,12.76,21.25,8.57,39.68,21.02,54.77,36.99,15.01,15.89,26.77,35.25,34.94,57.56,8.07,22.03,12.16,46.8,12.16,73.61,0,16.76-1.84,33.18-5.47,48.81-3.64,15.66-8.96,30.57-15.81,44.33-6.89,13.82-15.39,26.67-25.28,38.2-9.99,11.65-21.37,21.77-33.83,30.09-12.52,8.37-26.32,14.97-41.02,19.61-14.81,4.69-30.69,7.06-47.2,7.06h-.22ZM1238.35,441.81c-4.86,0-9.13.88-12.67,2.63-3.83,1.88-7.02,4.38-9.75,7.64-2.87,3.42-5.03,7.4-6.61,12.16-1.66,5.02-2.5,10.44-2.5,16.12s.78,11.48,2.3,17.18c1.43,5.4,3.59,10.31,6.42,14.6,2.52,3.82,5.54,6.82,9.22,9.16,2.93,1.85,6.44,2.75,10.73,2.75,4.77,0,8.8-.91,12.32-2.78,3.9-2.06,7.1-4.75,9.79-8.24,2.91-3.79,5.23-8.32,6.87-13.44,1.69-5.31,2.55-10.92,2.55-16.66s-.79-11.36-2.34-16.76c-1.46-5.06-3.57-9.55-6.28-13.35-2.46-3.47-5.43-6.2-9.09-8.35-3.04-1.79-6.63-2.66-10.96-2.66Z"/>
  <path d="M198.26,673.98c-10.08,0-20.68-.37-31.49-1.1-10.94-.74-22.02-2.04-32.93-3.85-11-1.83-21.97-4.32-32.63-7.4-10.97-3.17-21.51-7.22-31.33-12.05-5.79-2.85-9.4-8.62-9.41-15.07l-.47-304.31c-.01-6.86,4.09-12.98,10.43-15.59,9.31-3.82,19.32-7.32,29.76-10.39,10.39-3.05,21.14-5.64,31.95-7.71,10.73-2.05,21.6-3.63,32.31-4.7,10.77-1.08,21.35-1.62,31.45-1.62,11.81,0,23.91.76,35.98,2.26,12.38,1.54,24.46,4.14,35.92,7.73,11.67,3.66,22.74,8.49,32.91,14.36,10.66,6.16,20.13,13.87,28.15,22.89,8.18,9.22,14.65,20.04,19.23,32.17,4.56,12.1,6.87,26.02,6.87,41.38,0,10.55-1.55,20.65-4.61,30.03-3.11,9.51-7.66,18.2-13.53,25.83-4.04,5.25-8.73,10.02-13.98,14.23,8.91,5.87,16.68,12.93,23.13,21.01,7.07,8.87,12.6,18.96,16.44,30.01,3.83,11.05,5.78,22.92,5.78,35.3,0,15.68-3.04,29.61-9.03,41.41-5.85,11.49-13.77,21.4-23.56,29.47-9.35,7.7-20.19,14.03-32.23,18.82-11.33,4.52-23.28,8.1-35.52,10.65-12.02,2.51-24.27,4.2-36.41,5.04-11.79.81-22.95,1.22-33.17,1.22ZM200.71,549.91c1.41-.13,2.91-.34,4.49-.63,1.88-.34,3.61-1,5.29-2.03,1.25-.77,2.29-1.83,3.19-3.26.03-.05.83-1.37.83-5.44s-.77-5.57-1.01-5.96c-.94-1.56-1.95-2.67-3.08-3.4-1.44-.93-2.99-1.53-4.75-1.84-1.61-.29-3.13-.5-4.56-.63l-.41,23.2ZM201.9,445.56c1.69-.47,3.35-1.05,4.97-1.75,2.5-1.07,4.57-2.62,6.32-4.73.64-.77,1.32-2.85,1.32-6.38,0-2.12-.41-2.98-.53-3.19-.74-1.27-1.56-2.22-2.49-2.92-1.15-.85-2.35-1.46-3.67-1.84-2.28-.67-3.49-.74-3.9-.74-.49,0-.98.02-1.45.07l-.58,21.48Z"/>
  <path d="M469.83,661.44c-12.35,0-24.31-1.61-35.56-4.79-11.14-3.14-21.73-7.63-31.47-13.32-9.8-5.72-18.79-12.72-26.73-20.8-7.92-8.06-14.77-17.14-20.35-26.99-5.54-9.78-9.9-20.4-12.97-31.58-3.1-11.28-4.67-23.18-4.67-35.35s1.45-23.56,4.3-34.91c2.85-11.34,7.03-22.2,12.4-32.28,5.39-10.08,11.98-19.48,19.61-27.93,7.71-8.53,16.46-16,26.03-22.18,9.61-6.23,20.16-11.14,31.37-14.6,11.33-3.49,23.39-5.27,35.86-5.27,19.42,0,37.5,3.1,53.72,9.21,16.55,6.23,30.93,15.31,42.76,27,11.81,11.67,21.07,25.91,27.51,42.32,6.35,16.17,9.57,34.32,9.57,53.94,0,12.28-1.44,24.32-4.29,35.77-2.85,11.46-7.02,22.4-12.42,32.5-5.4,10.12-12.06,19.52-19.8,27.94-7.81,8.5-16.7,15.88-26.43,21.96-9.74,6.08-20.47,10.87-31.88,14.24-11.49,3.39-23.79,5.11-36.56,5.11ZM469.83,504.6c-3.19,0-5.94.52-8.16,1.54-2.37,1.09-4.33,2.51-5.98,4.36-1.72,1.91-3.02,4.15-3.98,6.85-1.05,2.96-1.56,6.06-1.56,9.47s.51,7.02,1.52,10.55c.92,3.21,2.29,6.13,4.07,8.65,1.52,2.16,3.34,3.84,5.58,5.17,1.65.98,3.72,1.45,6.34,1.45,3.08,0,5.63-.53,7.82-1.6,2.39-1.18,4.33-2.7,5.95-4.66,1.85-2.23,3.25-4.8,4.28-7.83,1.1-3.2,1.63-6.45,1.63-9.92s-.51-6.88-1.51-10.13c-.93-3-2.21-5.55-3.9-7.77-1.46-1.92-3.25-3.45-5.47-4.66-1.77-.97-3.94-1.45-6.63-1.45Z"/>
  <path d="M595.24,665.42c-4.51,0-8.9-1.85-12.05-5.08-3.15-3.23-4.89-7.67-4.77-12.17l6.51-256.23c.22-8.76,7.26-15.96,16.01-16.38l90.35-4.34c.27-.01.54-.02.81-.02,6.43,0,12.38,3.74,15.16,9.54l32.18,66.98,1.24-52.86c.21-8.9,7.35-16.12,16.25-16.42l85.29-2.89c.18,0,.38-.01.57-.01,4.49,0,8.86,1.84,12.01,5.04,3.29,3.36,5.04,7.98,4.79,12.67l-13.01,245.03c-.44,8.29-7,15.1-15.27,15.86l-94.68,8.67c-.51.05-1.03.07-1.54.07-6.9,0-13.21-4.33-15.69-10.77l-22.7-58.87-3.35,56.35c-.53,8.87-7.91,15.82-16.79,15.82h-81.31Z"/>
  <path d="M969.04,673.74c-18.77,0-36.38-3.45-52.36-10.26-15.95-6.8-29.94-16.34-41.58-28.38-11.58-11.97-20.75-26.22-27.25-42.34-6.5-16.11-9.79-33.62-9.79-52.06,0-13.72,1.6-27.35,4.75-40.51,3.14-13.14,7.71-25.72,13.58-37.41,5.92-11.77,13.24-22.74,21.76-32.59,8.62-9.98,18.56-18.7,29.52-25.93,11-7.25,23.18-12.95,36.2-16.95,13.09-4.02,27.21-6.05,41.96-6.05,5.28,0,10.99.22,16.97.64,6.14.44,12.33,1.2,18.41,2.26,6.32,1.11,12.55,2.66,18.52,4.61,6.34,2.07,12.26,4.68,17.61,7.77,5.55,3.21,8.83,9.4,8.36,15.79l-4.8,65.48c-.19,2.59-.99,5.08-2.28,7.28,2.6-.1,5.2-.2,7.8-.3.23,0,.45-.01.67-.01,4.31,0,8.41,1.63,11.55,4.59,3.27,3.09,5.19,7.44,5.27,11.93l2.06,115.18c.07,3.9-1.23,7.73-3.66,10.78-6.51,8.17-14.58,15.35-24,21.36-8.85,5.65-18.48,10.4-28.61,14.12-9.92,3.64-20.23,6.41-30.67,8.24-10.42,1.82-20.5,2.74-29.98,2.74Z"/>
  <path class="st1" d="M1384.78,400.7c-7.42-20.26-17.87-37.51-31.37-51.79-13.48-14.27-29.77-25.25-48.84-32.94-19.07-7.69-40.18-11.54-63.32-11.54-14.37,0-28.01,2.13-40.94,6.4-3.48,1.15-6.89,2.43-10.23,3.83t-.03.01c-3.45,1.43-6.83,3.01-10.14,4.71-5.39,2.77-10.61,5.91-15.64,9.39-11.1,7.7-21.11,16.84-30.04,27.45-8.94,10.59-16.57,22.22-22.86,34.86-6.31,12.66-11.14,26.12-14.49,40.39-3.35,14.27-5.03,28.84-5.03,43.72s1.81,29.83,5.39,43.84c3.59,14.01,8.62,27.14,15.08,39.35,6.46,12.22,14.28,23.33,23.46,33.33,9.17,10,19.43,18.56,30.76,25.65,11.34,7.08,23.51,12.61,36.52,16.53,6.43,1.95,13.02,3.41,19.79,4.39,6.85.99,13.87,1.5,21.06,1.51h.22c14.85,0,28.88-2.09,42.13-6.28,13.24-4.18,25.5-10.04,36.75-17.56,11.25-7.51,21.38-16.53,30.4-27.05,9.02-10.52,16.68-22.09,22.99-34.75,6.3-12.64,11.12-26.19,14.48-40.63,3.35-14.45,5.03-29.45,5.03-45.01,0-24.95-3.72-47.56-11.14-67.82ZM1241.26,533.14c-7.51,0-14.09-1.79-19.75-5.38-5.66-3.6-10.41-8.3-14.25-14.1-3.83-5.82-6.71-12.31-8.62-19.5-1.92-7.17-2.88-14.35-2.88-21.54s1.12-14.66,3.35-21.41c2.23-6.75,5.46-12.65,9.69-17.69,4.23-5.05,9.3-9.02,15.21-11.92,5.9-2.9,12.61-4.36,20.1-4.36s13.85,1.66,19.51,4.99c5.66,3.34,10.43,7.7,14.25,13.08,3.83,5.38,6.75,11.54,8.75,18.46,1.99,6.92,2.99,14.05,2.99,21.41s-1.12,14.79-3.35,21.79c-2.25,7.01-5.43,13.2-9.57,18.59-4.15,5.38-9.23,9.65-15.21,12.81-5.97,3.17-12.72,4.75-20.22,4.75Z"/>
  <path class="st1" d="M359.11,559.63c0,13.07-2.4,24.33-7.21,33.79-4.81,9.45-11.22,17.48-19.26,24.1-8.03,6.62-17.29,12.01-27.76,16.18-10.48,4.18-21.38,7.44-32.72,9.81-11.34,2.36-22.72,3.94-34.14,4.73-11.42.79-22.09,1.18-32.01,1.18s-19.89-.36-30.36-1.06c-10.48-.71-20.91-1.93-31.31-3.66-10.4-1.73-20.64-4.05-30.71-6.97-10.08-2.91-19.61-6.58-28.59-10.99l-.47-304.31c8.82-3.62,18.19-6.89,28.12-9.81,9.92-2.91,20.04-5.35,30.36-7.32,10.31-1.97,20.59-3.46,30.83-4.49,10.24-1.02,20.16-1.54,29.77-1.54,11.18,0,22.48.71,33.91,2.13,11.42,1.42,22.4,3.78,32.96,7.09,10.55,3.31,20.4,7.6,29.53,12.88,9.13,5.28,17.13,11.78,23.98,19.49,6.85,7.72,12.2,16.7,16.07,26.94,3.86,10.24,5.79,22.05,5.79,35.44,0,8.82-1.26,17.09-3.78,24.81-2.52,7.72-6.14,14.65-10.87,20.79-4.73,6.14-10.48,11.38-17.25,15.71-6.77,4.33-14.41,7.53-22.92,9.57,10.24,2.68,19.57,6.62,28,11.81,8.42,5.2,15.59,11.5,21.5,18.9,5.91,7.4,10.47,15.75,13.7,25.04,3.23,9.3,4.84,19.22,4.84,29.77ZM205.53,501.98c-4.57,0-8.98.47-13.23,1.42l-.95,53.87c2.36.47,4.68.91,6.97,1.3,2.28.4,4.52.59,6.73.59,3.31,0,6.93-.35,10.87-1.06,3.94-.71,7.64-2.12,11.11-4.25,3.46-2.13,6.34-5,8.62-8.62,2.28-3.62,3.42-8.42,3.42-14.41s-1.14-10.87-3.42-14.65c-2.29-3.78-5.08-6.73-8.39-8.86-3.31-2.13-6.93-3.54-10.87-4.25-3.94-.71-7.56-1.06-10.87-1.06ZM239.08,424.96c0-4.57-.95-8.47-2.84-11.69-1.89-3.23-4.21-5.87-6.97-7.92-2.76-2.05-5.75-3.54-8.98-4.49-3.23-.95-6.11-1.42-8.62-1.42-3.15,0-6.22.47-9.21,1.42-2.99.95-5.91,2.05-8.74,3.31l-1.42,52.45c3.62,0,8.11-.32,13.47-.95,5.35-.63,10.51-2.01,15.48-4.14,4.96-2.13,9.17-5.27,12.64-9.45,3.46-4.17,5.2-9.88,5.2-17.13Z"/>
  <path class="st1" d="M592.14,516.17c0,10.96-1.27,21.53-3.8,31.71-2.53,10.18-6.17,19.73-10.93,28.64-4.76,8.92-10.54,17.08-17.35,24.49-6.81,7.41-14.46,13.76-22.95,19.06-8.49,5.3-17.74,9.43-27.74,12.38-10,2.95-20.6,4.43-31.8,4.43s-21.17-1.38-30.99-4.16c-9.82-2.77-19-6.66-27.56-11.66-8.56-5-16.3-11.02-23.22-18.07-6.93-7.05-12.83-14.88-17.71-23.49-4.88-8.61-8.67-17.86-11.38-27.74-2.71-9.88-4.07-20.18-4.07-30.9s1.27-20.75,3.8-30.81c2.53-10.06,6.17-19.54,10.93-28.46,4.76-8.91,10.51-17.1,17.26-24.57,6.75-7.47,14.3-13.91,22.68-19.33,8.37-5.42,17.44-9.63,27.2-12.65,9.76-3.01,20.06-4.52,30.9-4.52,17.47,0,33.4,2.71,47.79,8.13,14.4,5.42,26.68,13.16,36.86,23.22,10.18,10.06,18.07,22.23,23.67,36.5,5.6,14.28,8.4,30.21,8.4,47.79ZM511.91,520.87c0-5.18-.75-10.21-2.26-15.09-1.51-4.88-3.7-9.21-6.6-13.01-2.89-3.8-6.48-6.87-10.75-9.22-4.28-2.35-9.19-3.52-14.73-3.52s-10.72,1.03-15.18,3.07c-4.46,2.05-8.28,4.85-11.47,8.4-3.19,3.55-5.63,7.71-7.32,12.47-1.69,4.76-2.53,9.79-2.53,15.09s.72,10.12,2.17,15.18c1.44,5.06,3.61,9.64,6.5,13.73,2.89,4.1,6.47,7.41,10.75,9.94,4.27,2.53,9.24,3.8,14.91,3.8s10.75-1.11,15.27-3.34c4.52-2.23,8.34-5.24,11.47-9.03,3.13-3.8,5.54-8.16,7.23-13.1,1.69-4.94,2.53-10.06,2.53-15.36Z"/>
  <path class="st1" d="M850.53,384.62l-13.01,245.03-94.69,8.67-50.59-131.19-7.95,133.72h-81.31l6.51-256.23,90.35-4.34,62.52,130.1,2.89-122.88,85.29-2.89Z"/>
  <path class="st1" d="M1076.88,609.07c-5.37,6.74-12,12.63-19.88,17.65-7.88,5.03-16.34,9.2-25.37,12.51-9.03,3.32-18.28,5.8-27.77,7.46-9.49,1.65-18.51,2.49-27.08,2.49-16.57,0-31.83-2.97-45.77-8.91-13.94-5.94-25.97-14.14-36.08-24.6-10.11-10.45-18.03-22.77-23.74-36.94-5.71-14.17-8.57-29.42-8.57-45.76,0-12.45,1.43-24.65,4.29-36.59,2.86-11.94,6.94-23.2,12.26-33.77,5.31-10.57,11.8-20.28,19.46-29.14,7.65-8.85,16.34-16.48,26.05-22.88,9.71-6.4,20.34-11.37,31.88-14.91,11.54-3.54,23.88-5.31,37.02-5.31,4.91,0,10.17.2,15.77.6,5.6.4,11.17,1.09,16.71,2.06,5.54.97,10.94,2.31,16.2,4.03,5.25,1.71,10.05,3.83,14.4,6.34l-4.8,65.48c-6.4-2.4-13-4.03-19.8-4.89-6.8-.86-13.46-1.29-19.97-1.29-9.14,0-17.68,1.4-25.62,4.2-7.94,2.8-14.86,6.83-20.74,12.08-5.89,5.26-10.54,11.66-13.97,19.2-3.43,7.54-5.14,16.06-5.14,25.54,0,5.94.8,11.68,2.4,17.23,1.6,5.54,4.03,10.46,7.28,14.74,3.26,4.29,7.31,7.74,12.17,10.37,4.86,2.63,10.48,3.94,16.88,3.94,4.34,0,8.83-.57,13.46-1.71,4.63-1.14,8.6-3.09,11.91-5.83l.69-13.37-41.14-.69,2.06-51.42c17.03-.57,34.05-1.06,51.08-1.46,17.03-.4,34.17-.94,51.42-1.63l2.06,115.18Z"/>
  <path d="M365.38,329.3c-3.89-24.8-7.71-49.48-11.45-74.02-3.74-24.54-7.41-49.5-10.92-74.17l-1.67-11.78,80.37-14.03.93,13.6c1.06,15.57,2.22,31.44,3.43,47.18.87,11.31,1.99,22.77,3.35,34.2l7.08-1.24c3.89-.68,7.7-1.38,11.44-2.11,3.89-.75,7.85-1.48,11.89-2.19l13.29-2.32,5.64,71.68-111.29,28.54-2.1-13.34Z"/>
  <path d="M640.14,322.18c-7.24,0-14.27-.95-20.89-2.82-6.54-1.84-12.75-4.48-18.47-7.82-5.75-3.35-11.03-7.47-15.7-12.22-4.65-4.73-8.68-10.07-11.95-15.85-3.25-5.75-5.81-11.97-7.61-18.52-1.82-6.63-2.74-13.62-2.74-20.76s.85-13.8,2.52-20.46c1.67-6.65,4.12-13.01,7.27-18.92,3.16-5.91,7.03-11.42,11.5-16.37,4.51-5,9.65-9.38,15.28-13.02,5.66-3.67,11.87-6.56,18.45-8.59,6.68-2.06,13.78-3.1,21.11-3.1,11.34,0,21.92,1.82,31.43,5.4,9.73,3.66,18.2,9.01,25.17,15.9,6.96,6.88,12.41,15.26,16.2,24.91,3.72,9.48,5.61,20.11,5.61,31.58,0,7.19-.85,14.23-2.51,20.94-1.67,6.72-4.12,13.13-7.28,19.05-3.17,5.94-7.08,11.45-11.62,16.4-4.59,4.99-9.82,9.33-15.54,12.9-5.73,3.58-12.04,6.39-18.73,8.37-6.76,2-13.99,3.01-21.48,3.01ZM640.14,232.62c-1.51,0-2.78.23-3.77.68-1.08.5-1.97,1.14-2.72,1.97-.79.88-1.4,1.93-1.85,3.19-.52,1.46-.77,3-.77,4.69,0,1.81.26,3.59.79,5.45.46,1.62,1.12,3.03,2.02,4.29.69.98,1.51,1.74,2.52,2.34.23.13.9.53,2.54.53,1.42,0,2.57-.23,3.52-.69,1.1-.54,1.96-1.21,2.69-2.1.89-1.08,1.56-2.32,2.07-3.8.55-1.6.81-3.23.81-4.97s-.25-3.48-.77-5.16c-.45-1.46-1.07-2.7-1.88-3.77-.65-.86-1.46-1.54-2.46-2.09-.67-.37-1.58-.55-2.74-.55Z"/>
  <path d="M873.36,326.39c-9.7,1.28-19.15.66-28.1-1.84-8.89-2.48-16.98-6.52-24.06-12.01-7.06-5.48-13.01-12.33-17.68-20.37-4.69-8.07-7.73-17.12-9.02-26.91-1.61-12.18-1.38-24.11.7-35.44,2.12-11.59,6.2-22.23,12.12-31.6,6.03-9.55,14.09-17.61,23.97-23.95,9.89-6.35,21.71-10.47,35.15-12.24,5-.66,10.24-.95,15.56-.85,5.89.11,11.57,1.06,16.89,2.82l7.66,2.53-.02,62.6-12.68-1.75c-1.33-.18-2.65-.26-3.94-.22-1.52.04-3.05.17-4.52.36-3.72.49-7.23,1.46-10.42,2.86-2.9,1.28-5.29,2.89-7.3,4.93-1.84,1.87-3.18,4.04-4.1,6.64-.87,2.46-1.07,5.46-.61,8.92.24,1.8.68,3.27,1.27,4.25.49.82,1.04,1.4,1.72,1.83.86.54,1.88.9,3.12,1.09,1.7.26,3.63.25,5.73-.02,1.67-.22,3.43-.64,5.23-1.26,2.08-.71,4.14-1.56,6.13-2.53,2.05-1,4.05-2.11,5.94-3.3,1.94-1.22,3.71-2.45,5.29-3.67l16.97-13.11,3.45,73.77-5.08,3.52c-2.78,1.92-5.86,3.73-9.16,5.36-3.1,1.54-6.37,2.97-9.69,4.24-3.38,1.3-6.84,2.41-10.28,3.31-3.5.92-6.94,1.6-10.22,2.04Z"/>
  <path d="M1098.32,305.28c-7.97.18-15.72-.68-23.04-2.57-7.22-1.86-14.13-4.59-20.51-8.13-6.42-3.55-12.33-7.94-17.59-13.05-5.23-5.08-9.79-10.85-13.54-17.13-3.72-6.24-6.7-13.02-8.84-20.18-2.17-7.23-3.36-14.89-3.54-22.75-.17-7.61.58-15.2,2.26-22.56,1.67-7.35,4.2-14.41,7.52-20.99,3.33-6.59,7.44-12.74,12.23-18.3,4.84-5.62,10.39-10.57,16.48-14.71,6.13-4.17,12.88-7.51,20.07-9.91,7.29-2.43,15.07-3.76,23.14-3.95,12.47-.29,24.15,1.44,34.7,5.14,10.8,3.79,20.25,9.46,28.08,16.85,7.83,7.39,14.03,16.46,18.44,26.98,4.33,10.35,6.68,21.98,6.97,34.59.18,7.9-.57,15.67-2.23,23.09-1.67,7.43-4.2,14.54-7.52,21.13-3.34,6.61-7.5,12.77-12.36,18.32-4.93,5.61-10.57,10.52-16.76,14.59-6.2,4.08-13.06,7.33-20.38,9.68-7.38,2.37-15.31,3.66-23.55,3.85ZM1096.06,206.79c-1.66.04-3.05.32-4.12.85-1.17.57-2.14,1.3-2.94,2.24-.85.99-1.49,2.15-1.95,3.56-.53,1.62-.77,3.31-.73,5.18.05,1.99.37,3.94,1,5.97.55,1.77,1.31,3.3,2.32,4.67.78,1.06,1.71,1.88,2.83,2.51.26.14,1.01.56,2.8.52,1.56-.04,2.82-.31,3.85-.85,1.18-.62,2.13-1.39,2.91-2.38.95-1.2,1.66-2.59,2.18-4.24.56-1.77.81-3.57.77-5.48-.05-1.97-.36-3.82-.97-5.65-.54-1.6-1.25-2.94-2.17-4.11-.73-.92-1.63-1.65-2.74-2.23-.76-.4-1.76-.58-3.04-.55Z"/>
  <path class="st0" d="M467.13,252.99l3.77,47.94-88.21,22.63c-3.89-24.79-7.7-49.44-11.44-73.96-3.74-24.52-7.37-49.21-10.91-74.06l55.23-9.64c1.08,15.79,2.23,31.55,3.44,47.28,1.21,15.73,2.87,31.51,4.98,47.34,3.35-.44,6.66-.94,9.92-1.51s6.55-1.14,9.88-1.72c3.96-.69,7.85-1.41,11.67-2.15,3.81-.74,7.7-1.45,11.67-2.15Z"/>
  <path class="st0" d="M711.08,238.74c0,6.26-.72,12.3-2.17,18.11-1.44,5.81-3.53,11.26-6.24,16.35-2.72,5.09-6.02,9.75-9.9,13.98-3.89,4.23-8.25,7.86-13.1,10.89-4.85,3.03-10.13,5.38-15.84,7.07-5.71,1.69-11.76,2.53-18.16,2.53s-12.09-.79-17.7-2.37c-5.61-1.58-10.85-3.8-15.73-6.66-4.88-2.85-9.3-6.29-13.26-10.32-3.96-4.02-7.33-8.49-10.11-13.41-2.78-4.92-4.95-10.2-6.5-15.84-1.55-5.64-2.32-11.52-2.32-17.64s.72-11.85,2.17-17.59c1.44-5.74,3.52-11.16,6.24-16.25,2.72-5.09,6-9.77,9.85-14.03,3.85-4.26,8.17-7.94,12.95-11.04,4.78-3.1,9.96-5.5,15.53-7.22,5.57-1.72,11.45-2.58,17.64-2.58,9.97,0,19.07,1.55,27.29,4.64,8.22,3.1,15.24,7.52,21.05,13.26,5.81,5.74,10.32,12.69,13.52,20.84,3.2,8.15,4.8,17.25,4.8,27.29ZM665.27,241.43c0-2.96-.43-5.83-1.29-8.62-.86-2.79-2.12-5.26-3.77-7.43-1.65-2.17-3.7-3.92-6.14-5.26-2.44-1.34-5.25-2.01-8.41-2.01s-6.12.59-8.67,1.75c-2.55,1.17-4.73,2.77-6.55,4.8-1.82,2.03-3.22,4.4-4.18,7.12-.96,2.72-1.44,5.59-1.44,8.62s.41,5.78,1.24,8.67c.83,2.89,2.06,5.5,3.71,7.84,1.65,2.34,3.7,4.23,6.14,5.67,2.44,1.44,5.28,2.17,8.51,2.17s6.14-.64,8.72-1.91c2.58-1.27,4.76-2.99,6.55-5.16,1.79-2.17,3.16-4.66,4.13-7.48.96-2.82,1.44-5.74,1.44-8.77Z"/>
  <path class="st0" d="M900.26,171.3l-.02,41.73c-1.95-.27-3.87-.38-5.78-.32-1.91.05-3.8.21-5.68.45-4.79.63-9.28,1.87-13.45,3.71-4.17,1.84-7.76,4.27-10.75,7.31-2.99,3.03-5.22,6.62-6.68,10.77-1.46,4.15-1.85,8.85-1.15,14.09.45,3.37,1.37,6.21,2.76,8.53,1.4,2.32,3.17,4.16,5.33,5.52,2.16,1.36,4.62,2.26,7.38,2.68,2.76.43,5.72.43,8.9,0,2.4-.32,4.86-.91,7.38-1.77,2.52-.86,4.99-1.88,7.41-3.06,2.41-1.18,4.75-2.47,7-3.89,2.25-1.42,4.3-2.84,6.16-4.28l2.16,46.19c-2.36,1.63-4.94,3.14-7.75,4.54-2.82,1.4-5.73,2.67-8.74,3.83-3.01,1.16-6.05,2.13-9.1,2.93-3.06.8-6.01,1.39-8.86,1.77-8.23,1.09-16.11.58-23.63-1.52-7.53-2.1-14.27-5.46-20.22-10.08-5.95-4.62-10.91-10.34-14.88-17.16-3.97-6.82-6.51-14.42-7.61-22.77-1.47-11.08-1.26-21.73.61-31.97,1.87-10.23,5.4-19.45,10.58-27.65,5.18-8.2,12.03-15.04,20.57-20.52,8.54-5.48,18.73-9,30.59-10.57,4.47-.59,9.1-.84,13.89-.75,4.79.09,9.32.84,13.6,2.25Z"/>
  <path class="st0" d="M1174.23,211.73c.16,6.88-.48,13.54-1.92,19.97-1.44,6.43-3.59,12.48-6.45,18.14-2.86,5.67-6.37,10.87-10.54,15.62-4.17,4.75-8.88,8.85-14.14,12.3-5.26,3.45-11,6.18-17.24,8.17-6.24,2-12.87,3.08-19.91,3.24-6.81.16-13.31-.56-19.52-2.16-6.21-1.6-12.03-3.9-17.47-6.92-5.44-3.01-10.39-6.69-14.84-11.01-4.45-4.33-8.27-9.16-11.46-14.5-3.19-5.34-5.7-11.09-7.55-17.25-1.84-6.16-2.84-12.61-3-19.34-.15-6.58.49-13.05,1.94-19.4,1.44-6.35,3.59-12.36,6.45-18.03,2.86-5.67,6.35-10.89,10.48-15.68,4.13-4.79,8.78-8.94,13.96-12.47,5.18-3.52,10.81-6.3,16.9-8.33,6.08-2.03,12.53-3.13,19.34-3.28,10.97-.25,21.01,1.22,30.13,4.42,9.12,3.2,16.94,7.88,23.48,14.05,6.54,6.17,11.67,13.7,15.39,22.58,3.72,8.88,5.71,18.85,5.96,29.89ZM1123.92,215.84c-.07-3.25-.62-6.4-1.63-9.44-1.02-3.04-2.46-5.73-4.33-8.07-1.87-2.34-4.17-4.22-6.88-5.63-2.72-1.41-5.82-2.08-9.3-2-3.56.08-6.72.8-9.49,2.15-2.77,1.35-5.13,3.17-7.08,5.44-1.95,2.28-3.43,4.92-4.42,7.93-.99,3.01-1.45,6.18-1.37,9.51.07,3.18.6,6.34,1.58,9.5.98,3.16,2.41,6,4.28,8.53,1.87,2.53,4.17,4.56,6.9,6.09,2.72,1.53,5.86,2.25,9.42,2.17,3.55-.08,6.74-.85,9.54-2.32,2.81-1.46,5.16-3.41,7.07-5.84,1.91-2.43,3.36-5.2,4.35-8.33.99-3.12,1.44-6.35,1.37-9.68Z"/>
</svg>