<svg version="1.2" xmlns="http://www.w3.org/2000/svg" viewBox="0 0 1920 1080" width="1920" height="1080">
	<title>LB LOGO-ai</title>
	<style>
		.s0 { fill: #000000 } 
		.s1 { fill: #f2e500 } 
		.s2 { fill: #bdcf00 } 
		.s3 { fill: #934894 } 
		.s4 { fill: #e32084 } 
	</style>
	<g id="Capa 1">
		<g id="&lt;Group&gt;">
			<path id="&lt;Path&gt;" class="s0" d="m1690.4 871.9c-7.1 0-13-5.3-13.7-12.3-4.6-44.2-22.7-72-38.3-76.5-6-1.8-9.9-7.1-9.9-13.2v-0.5c0-6.1 3.9-11.4 9.8-13.2 15.7-4.6 33.8-32.3 38.4-76.5 0.7-7.1 6.6-12.4 13.7-12.4 7.1 0 13 5.4 13.7 12.5 4.5 44.1 22.7 71.8 38.3 76.4 5.8 1.7 9.9 7.2 9.9 13.2v0.5c0 6-4.1 11.4-9.9 13.1-15.6 4.6-33.8 32.4-38.3 76.6-0.7 7-6.6 12.3-13.7 12.3z"/>
			<g id="&lt;Group&gt;">
				<path id="&lt;Path&gt;" class="s1" d="m1743.3 765.7v0.4c0 0.5-0.3 1-0.8 1.1-23.7 7-42.7 42.2-47.3 87.4-0.1 0.5-0.5 1-1.1 1-0.6 0-1.1-0.5-1.1-1-4.7-45.2-23.6-80.4-47.4-87.4-0.4-0.1-0.8-0.6-0.8-1.1v-0.4c0-0.5 0.4-0.9 0.8-1.1 23.8-7 42.7-42.2 47.4-87.3 0-0.6 0.5-1 1.1-1 0.6 0 1 0.4 1.1 1 4.6 45.1 23.6 80.3 47.3 87.3 0.5 0.2 0.8 0.6 0.8 1.1z"/>
			</g>
			<g id="&lt;Group&gt;">
				<path id="&lt;Path&gt;" class="s0" d="m1750.5 706.6c-5 0-9.2-3.8-9.7-8.8-2.2-21.2-10.8-34.9-17.7-36.9-4.2-1.3-7.1-5-7.1-9.4 0-4.5 2.9-8.4 7.1-9.6 6.9-2 15.5-15.7 17.7-36.9 0.5-5 4.7-8.8 9.7-8.8 5.1 0 9.3 3.8 9.7 8.8 2.2 21.2 10.8 34.9 17.8 36.9 4.1 1.2 7 5.1 7 9.4 0 4.5-2.8 8.3-6.9 9.6-7.1 2-15.7 15.7-17.9 36.9-0.4 5-4.6 8.8-9.7 8.8z"/>
				<g id="&lt;Group&gt;">
					<path id="&lt;Path&gt;" class="s1" d="m1778.5 648.6v0.2c0 0.3-0.2 0.5-0.4 0.6-12.2 3.6-21.9 21.6-24.3 44.8 0 0.3-0.3 0.5-0.6 0.5-0.3 0-0.5-0.2-0.5-0.5-2.4-23.2-12.2-41.2-24.3-44.8-0.3-0.1-0.5-0.3-0.5-0.6v-0.2c0-0.3 0.2-0.5 0.5-0.6 12.1-3.5 21.9-21.6 24.3-44.8 0-0.3 0.2-0.5 0.5-0.5 0.3 0 0.6 0.2 0.6 0.5 2.4 23.2 12.1 41.3 24.3 44.8 0.2 0.1 0.4 0.3 0.4 0.6z"/>
				</g>
			</g>
			<path id="&lt;Path&gt;" class="s0" d="m294.5 386.6c-7.1 0-13-5.3-13.7-12.3-4.6-44.2-22.7-72-38.3-76.6-6-1.8-9.9-7.1-9.9-13.2v-0.4c0-6.2 3.9-11.5 9.8-13.2 15.7-4.6 33.8-32.4 38.4-76.6 0.7-7 6.6-12.3 13.7-12.3 7.1 0 13 5.3 13.7 12.4 4.5 44.1 22.7 71.9 38.3 76.5 5.8 1.7 9.9 7.1 9.9 13.2v0.4c0 6.1-4.1 11.5-9.9 13.2-15.6 4.6-33.8 32.4-38.3 76.5-0.7 7-6.6 12.4-13.7 12.4z"/>
			<g id="&lt;Group&gt;">
				<path id="&lt;Path&gt;" class="s1" d="m347.5 280.4v0.4c0 0.5-0.4 0.9-0.8 1.1-23.8 7-42.7 42.2-47.4 87.3-0.1 0.6-0.5 1-1.1 1-0.6 0-1-0.4-1.1-1-4.7-45.1-23.6-80.3-47.4-87.3-0.4-0.2-0.8-0.6-0.8-1.1v-0.4c0-0.5 0.4-1 0.8-1.1 23.8-7 42.7-42.2 47.4-87.4 0.1-0.5 0.5-1 1.1-1 0.6 0 1 0.5 1.1 1 4.7 45.2 23.6 80.4 47.4 87.4 0.4 0.1 0.8 0.6 0.8 1.1z"/>
			</g>
			<g id="&lt;Group&gt;">
				<path id="&lt;Path&gt;" class="s0" d="m1559 401.4c-56.7 82.3-196.4 257.7-494.4 507.3-15.9 13.4-36.2 20.8-57 20.8-15.4 0-30.7-4.1-44.1-11.8-84.1-48.4-309.6-189.8-586.9-458.3-19.7-19.1-26.8-47.2-18.6-73.3 8.2-26.1 30-45 57-49.4 85.2-13.8 242.6-34.3 476.5-45.1v14.9c45.2-2.1 93.2-3.8 144.2-5.1v-14.8c58.6-1.5 121.1-2.3 187.4-2.3 89.7 0 183.5 1.5 278.7 4.4 26.8 0.8 50 15.6 62.1 39.6 12.1 23.8 10.3 51.1-4.9 73.1z"/>
				<g id="&lt;Group&gt;">
					<path id="&lt;Path&gt;" class="s2" d="m1548 383.6c-71.5 103.8-221.6 277.9-490.7 503.3-21.8 18.3-52.8 21.1-77.5 6.9-88.4-51-309.5-190.6-582.8-455.3-30.3-29.3-14.3-80.6 27.4-87.4 89.6-14.6 243.1-34 467.1-44.6 45.2-2.1 93.2-3.8 144.2-5.1 135.9-3.5 292.8-3.5 471.4 2 40.6 1.2 63.9 46.8 40.9 80.2z"/>
				</g>
				<g id="&lt;Group&gt;">
					<path id="&lt;Path&gt;" class="s0" d="m625 494.1c-71.4 0-130.1-53.6-136.5-124.8-3.4-36.5 7.7-72.1 31.2-100.3 23.4-28.2 56.5-45.5 93-48.9 4.1-0.3 8.4-0.5 12.6-0.5 71.3 0 130 53.6 136.5 124.8 6.9 75.3-48.8 142.2-124.2 149.1-4.2 0.4-8.4 0.6-12.6 0.6z"/>
				</g>
				<g id="&lt;Group&gt;">
					<path id="&lt;Path&gt;" class="s0" d="m864.2 482.7c-65.8 0-120-49.5-126-115.1-3-33.7 7.2-66.6 28.8-92.5 21.7-26 52.1-42 85.8-45.1 3.9-0.3 7.8-0.5 11.6-0.5 65.8 0 120 49.5 126 115.1 3 33.6-7.2 66.5-28.8 92.5-21.7 26-52.1 42-85.8 45-3.8 0.4-7.8 0.6-11.6 0.6z"/>
				</g>
				<g id="&lt;Group&gt;">
					<path id="&lt;Path&gt;" class="s0" d="m1329.9 465.6c-71.4 0-130.1-53.6-136.6-124.8-3.3-36.5 7.8-72.1 31.2-100.3 23.5-28.2 56.5-45.5 93-48.8 4.2-0.4 8.5-0.6 12.7-0.6 71.3 0 130 53.6 136.5 124.8 6.9 75.3-48.8 142.3-124.2 149.1-4.2 0.4-8.5 0.6-12.6 0.6z"/>
				</g>
				<g id="&lt;Group&gt;">
					<path id="&lt;Path&gt;" class="s0" d="m1091.7 480.7c-65.8 0-119.9-49.4-125.9-115.1-3.1-33.6 7.1-66.5 28.8-92.5 21.6-25.9 52-41.9 85.7-45 3.9-0.4 7.8-0.6 11.7-0.6 65.8 0 119.9 49.5 125.9 115.1 3.1 33.7-7.2 66.6-28.8 92.5-21.6 26-52.1 42-85.8 45.1-3.8 0.4-7.7 0.5-11.6 0.5z"/>
				</g>
				<g id="&lt;Group&gt;">
					<g id="&lt;Group&gt;">
						<path id="&lt;Path&gt;" class="s3" d="m752 339c5.9 64.6-41.7 121.7-106.3 127.6-64.6 5.9-121.7-41.7-127.6-106.3-5.9-64.6 41.7-121.7 106.3-127.6 64.5-5.9 121.7 41.7 127.6 106.3z"/>
						<path id="&lt;Path&gt;" class="s3" d="m980.5 339.2c5.4 58.7-37.9 110.6-96.6 116-58.7 5.3-110.6-37.9-116-96.6-5.4-58.7 37.9-110.7 96.6-116 58.7-5.4 110.6 37.9 116 96.6z"/>
						<path id="&lt;Path&gt;" class="s3" d="m1208 337.3c5.4 58.7-37.9 110.6-96.6 116-58.7 5.3-110.6-37.9-116-96.6-5.3-58.7 37.9-110.7 96.6-116 58.7-5.4 110.7 37.9 116 96.6z"/>
						<path id="&lt;Path&gt;" class="s3" d="m1456.8 310.5c5.9 64.6-41.6 121.7-106.2 127.6-64.6 5.9-121.7-41.7-127.6-106.3-5.9-64.5 41.7-121.7 106.2-127.6 64.6-5.9 121.7 41.7 127.6 106.3z"/>
					</g>
				</g>
				<g id="&lt;Group&gt;">
					<path id="&lt;Compound Path&gt;" fill-rule="evenodd" class="s0" d="m1484.9 776.9c-8.2 0-16.2-0.6-24-1.7-7.8-1.1-15.4-2.8-22.7-5-14.7-4.5-28.6-10.8-41.5-18.8-12.8-8-24.6-17.9-34.9-29.2-10.4-11.2-19.3-23.9-26.5-37.6-7.2-13.6-12.9-28.4-16.9-43.9-4-15.7-6-32.2-6-49.1 0-16.4 1.9-32.8 5.6-48.6 3.7-15.8 9.1-30.9 16.1-45 7-14 15.6-27.2 25.6-39 10-11.9 21.5-22.3 34-31 5.8-4 11.8-7.7 17.9-10.8 3.8-1.9 7.7-3.7 11.5-5.3q5.9-2.5 11.9-4.5c14.8-4.9 30.7-7.4 47.2-7.4 25.7 0 49.6 4.4 71 13 21.8 8.8 40.6 21.5 56 37.8 15.3 16.3 27.3 36 35.7 58.8 8.2 22.5 12.4 47.8 12.4 75.2 0 17.1-1.9 33.9-5.6 49.8-3.7 16-9.1 31.3-16.1 45.3-7.1 14.1-15.8 27.3-25.9 39-10.2 11.9-21.8 22.3-34.5 30.8-12.8 8.5-26.9 15.3-41.9 20-15.1 4.8-31.4 7.2-48.2 7.2zm0.2-227.3c-5 0-9.3 0.9-12.9 2.7-4 1.9-7.2 4.5-10 7.8-2.9 3.5-5.1 7.6-6.8 12.4-1.6 5.1-2.5 10.7-2.5 16.5 0 5.8 0.8 11.7 2.3 17.5 1.5 5.5 3.7 10.6 6.6 14.9 2.6 3.9 5.7 7 9.4 9.4 3 1.9 6.6 2.8 11 2.8 4.8 0 9-0.9 12.6-2.8 3.9-2.1 7.2-4.9 10-8.4 2.9-3.9 5.3-8.5 7-13.8 1.7-5.4 2.6-11.1 2.6-17 0-5.8-0.8-11.6-2.4-17.1-1.5-5.2-3.7-9.8-6.4-13.6-2.5-3.6-5.6-6.4-9.3-8.6-3.1-1.8-6.8-2.7-11.2-2.7z"/>
					<path id="&lt;Compound Path&gt;" fill-rule="evenodd" class="s0" d="m422.8 786.7c-10.3 0-21.1-0.3-32.2-1.1-11.2-0.7-22.5-2.1-33.6-3.9-11.3-1.9-22.5-4.4-33.3-7.6-11.3-3.2-22-7.4-32-12.3-6-2.9-9.6-8.8-9.7-15.4l-0.4-310.8c0-7 4.1-13.3 10.6-15.9 9.5-3.9 19.8-7.5 30.4-10.6 10.6-3.1 21.6-5.8 32.6-7.9 11-2.1 22.1-3.7 33-4.8 11-1.1 21.9-1.7 32.2-1.7 12 0 24.4 0.8 36.7 2.3 12.7 1.6 25 4.3 36.7 7.9 11.9 3.8 23.2 8.7 33.6 14.7 10.9 6.3 20.6 14.2 28.8 23.4 8.3 9.4 14.9 20.5 19.6 32.8 4.7 12.4 7 26.6 7 42.3 0 10.8-1.6 21.1-4.7 30.7-3.2 9.7-7.8 18.6-13.8 26.4-4.1 5.3-8.9 10.2-14.3 14.5 9.1 6 17 13.2 23.6 21.4 7.3 9.1 12.9 19.4 16.8 30.7 3.9 11.3 5.9 23.4 5.9 36.1 0 16-3.1 30.2-9.2 42.2-6 11.8-14.1 21.9-24.1 30.1-9.5 7.9-20.6 14.4-32.9 19.3-11.5 4.6-23.8 8.2-36.3 10.8-12.2 2.6-24.7 4.3-37.1 5.2-12.1 0.8-23.5 1.2-33.9 1.2zm2.5-126.7q2.1-0.2 4.6-0.6c1.9-0.4 3.7-1.1 5.4-2.1 1.2-0.8 2.3-1.9 3.2-3.3 0.1-0.1 0.9-1.4 0.9-5.6 0-4.1-0.8-5.7-1-6.1-1-1.6-2-2.7-3.2-3.4-1.5-1-3.1-1.6-4.8-1.9q-2.5-0.5-4.7-0.7zm1.2-106.6q2.6-0.7 5.1-1.7c2.5-1.1 4.7-2.7 6.4-4.9 0.7-0.8 1.4-2.9 1.4-6.5 0-2.2-0.4-3-0.5-3.3-0.8-1.2-1.6-2.2-2.6-2.9-1.2-0.9-2.4-1.5-3.7-1.9-2.4-0.7-3.6-0.8-4-0.8q-0.8 0-1.5 0.1z"/>
					<path id="&lt;Compound Path&gt;" fill-rule="evenodd" class="s0" d="m700.2 773.9c-12.7 0-24.9-1.6-36.4-4.9-11.3-3.2-22.2-7.8-32.1-13.6-10-5.8-19.2-13-27.3-21.2-8.1-8.2-15.1-17.5-20.8-27.6-5.7-10-10.1-20.8-13.2-32.2-3.2-11.6-4.8-23.7-4.8-36.1 0-12.1 1.5-24.1 4.4-35.7 2.9-11.6 7.2-22.7 12.7-33 5.5-10.3 12.2-19.9 20-28.5 7.9-8.7 16.8-16.3 26.6-22.6 9.8-6.4 20.6-11.4 32-15 11.6-3.5 23.9-5.3 36.6-5.3 19.9 0 38.3 3.1 54.9 9.4 16.9 6.3 31.6 15.6 43.7 27.5 12 12 21.5 26.5 28.1 43.3 6.5 16.5 9.7 35 9.7 55.1 0 12.5-1.4 24.8-4.3 36.5-2.9 11.7-7.2 22.9-12.7 33.2-5.5 10.3-12.3 19.9-20.2 28.5-8 8.7-17.1 16.3-27 22.5-10 6.2-20.9 11.1-32.6 14.5-11.7 3.5-24.3 5.2-37.3 5.2zm0-160.2c-3.3 0-6.1 0.6-8.4 1.6-2.4 1.1-4.4 2.6-6.1 4.5-1.7 1.9-3.1 4.2-4.1 6.9-1 3.1-1.5 6.2-1.5 9.7 0 3.6 0.5 7.2 1.5 10.8 0.9 3.3 2.3 6.2 4.2 8.8 1.5 2.2 3.4 4 5.7 5.3 1.6 1 3.8 1.5 6.4 1.5 3.2 0 5.8-0.6 8-1.7 2.5-1.2 4.4-2.7 6.1-4.7 1.9-2.3 3.3-4.9 4.4-8 1.1-3.3 1.6-6.6 1.6-10.1 0-3.6-0.5-7.1-1.5-10.4-1-3.1-2.3-5.7-4-7.9-1.5-2-3.3-3.5-5.6-4.8-1.8-1-4-1.5-6.7-1.5z"/>
					<path id="&lt;Path&gt;" class="s0" d="m828.2 778c-4.6 0-9.1-1.9-12.3-5.2-3.2-3.3-5-7.8-4.8-12.4l6.6-261.7c0.2-9 7.4-16.3 16.4-16.8l92.2-4.4q0.4 0 0.9 0c6.5 0 12.6 3.8 15.4 9.7l32.9 68.4 1.3-53.9c0.2-9.1 7.5-16.5 16.6-16.8l87.1-3q0.3 0 0.6 0c4.6 0 9 1.9 12.2 5.2 3.4 3.4 5.2 8.1 4.9 12.9l-13.3 250.3c-0.4 8.4-7.1 15.4-15.5 16.2l-96.8 8.8q-0.7 0.1-1.5 0.1c-7.1 0-13.5-4.4-16.1-11l-23.1-60.1-3.5 57.5c-0.5 9.1-8 16.2-17.1 16.2z"/>
					<path id="&lt;Path&gt;" class="s0" d="m1210 786.5c-19.1 0-37.1-3.5-53.5-10.5-16.3-6.9-30.5-16.7-42.4-29-11.9-12.2-21.2-26.7-27.9-43.2-6.6-16.5-10-34.4-10-53.2 0-14 1.7-27.9 4.9-41.4 3.2-13.4 7.9-26.2 13.9-38.2 6-12 13.5-23.2 22.2-33.3 8.8-10.1 18.9-19 30.1-26.4 11.3-7.4 23.7-13.3 37-17.3 13.4-4.1 27.8-6.2 42.9-6.2 5.4 0 11.2 0.2 17.3 0.6 6.3 0.5 12.6 1.3 18.8 2.3 6.5 1.2 12.8 2.8 18.9 4.8 6.5 2.1 12.5 4.7 18 7.9 5.7 3.3 9 9.6 8.5 16.1l-4.9 66.9c-0.2 2.6-1 5.2-2.3 7.4q4-0.1 8-0.3 0.3 0 0.7 0c4.4 0 8.5 1.7 11.8 4.7 3.3 3.2 5.3 7.6 5.3 12.2l2.1 117.6c0.1 4-1.2 7.9-3.7 11-6.6 8.4-14.9 15.7-24.5 21.9-9.1 5.7-18.9 10.6-29.2 14.4-10.2 3.7-20.7 6.5-31.4 8.4-10.6 1.9-20.9 2.8-30.6 2.8z"/>
					<g id="&lt;Group&gt;">
						<path id="&lt;Compound Path&gt;" fill-rule="evenodd" class="s4" d="m1646 576.9q0 23.8-5.1 46-5.2 22.1-14.8 41.5-9.7 19.3-23.5 35.4-13.8 16.2-31 27.7-17.3 11.5-37.6 17.9-20.3 6.4-43 6.4h-0.2q-11 0-21.5-1.5-10.4-1.5-20.3-4.5-19.9-6-37.2-16.9-17.4-10.9-31.5-26.2-14-15.3-23.9-34-9.9-18.7-15.4-40.2-5.5-21.5-5.5-44.8 0-22.8 5.1-44.6 5.1-21.9 14.8-41.3 9.6-19.4 23.4-35.6 13.6-16.2 30.6-28 7.7-5.4 16-9.6 5.1-2.6 10.4-4.8 0-0.1 0-0.1 5.1-2.1 10.4-3.9 19.8-6.5 41.9-6.5 35.4 0 64.6 11.8 29.2 11.8 49.9 33.6 20.7 21.9 32 52.9 11.4 31.1 11.4 69.3zm-137.3 61.1q9.2-4.8 15.5-13 6.4-8.3 9.8-19 3.4-10.8 3.5-22.3-0.1-11.3-3.1-21.9-3.1-10.6-8.9-18.8-5.9-8.3-14.6-13.4-8.7-5.1-19.9-5.1-11.5 0-20.6 4.5-9 4.4-15.5 12.1-6.5 7.8-9.9 18.1-3.4 10.4-3.4 21.9 0 11 2.9 22 3 11 8.8 19.9 5.9 8.9 14.6 14.4 8.7 5.5 20.2 5.5 11.4 0 20.6-4.9z"/>
						<path id="&lt;Compound Path&gt;" fill-rule="evenodd" class="s4" d="m587.1 669.9q0 20.1-7.4 34.6-7.4 14.4-19.7 24.6-12.3 10.1-28.3 16.5-16.1 6.4-33.4 10-17.4 3.6-34.9 4.8-17.5 1.2-32.7 1.2-15 0-31-1-16.1-1.1-32-3.8-15.9-2.6-31.4-7.1-15.4-4.5-29.2-11.2l-0.4-310.8q13.5-5.6 28.7-10 15.2-4.5 31-7.5 15.8-3 31.5-4.6 15.7-1.6 30.4-1.6 17.1 0 34.6 2.2 17.5 2.2 33.7 7.2 16.1 5.1 30.1 13.2 14 8.1 24.5 19.9 10.5 11.8 16.4 27.5 5.9 15.7 5.9 36.2 0 13.5-3.8 25.3-3.9 11.9-11.1 21.3-7.3 9.4-17.6 16-10.4 6.7-23.4 9.8 15.6 4.1 28.6 12.1 12.9 7.9 21.9 19.3 9.1 11.3 14 25.5 5 14.3 5 30.4zm-156.9-58.8q-7 0-13.5 1.4l-1 55q3.6 0.8 7.1 1.4 3.5 0.6 6.9 0.6 5.1 0 11.1-1.1 6.1-1.1 11.4-4.4 5.3-3.2 8.8-8.8 3.5-5.5 3.5-14.7 0-9.2-3.5-15-3.5-5.7-8.6-9-5.1-3.3-11.1-4.4-6-1-11.1-1zm34.3-78.7q0-7-2.9-11.9-2.9-5-7.1-8.1-4.3-3.2-9.2-4.6-5-1.5-8.8-1.5-4.9 0-9.4 1.5-4.6 1.4-9 3.4l-1.4 53.5q5.5 0 13.7-0.9 8.2-1 15.9-4.3 7.6-3.2 12.9-9.6 5.3-6.4 5.3-17.5z"/>
						<path id="&lt;Compound Path&gt;" fill-rule="evenodd" class="s4" d="m825.1 625.6q0 16.7-3.9 32.3-3.9 15.6-11.2 29.3-7.3 13.7-17.7 25-10.4 11.4-23.4 19.5-13 8.1-28.4 12.6-15.3 4.5-32.4 4.5-16.7 0-31.7-4.2-15-4.3-28.1-11.9-13.1-7.7-23.8-18.5-10.6-10.8-18-24-7.5-13.2-11.7-28.3-4.1-15.1-4.1-31.5 0-16.1 3.9-31.5 3.8-15.4 11.1-29.1 7.3-13.6 17.6-25.1 10.4-11.4 23.2-19.7 12.8-8.3 27.8-13 14.9-4.6 31.5-4.6 26.8 0 48.9 8.3 22 8.3 37.6 23.8 15.6 15.4 24.2 37.2 8.6 21.9 8.6 48.9zm-82 4.8q0-8-2.3-15.5-2.3-7.4-6.7-13.2-4.5-5.9-11-9.5-6.6-3.6-15-3.6-8.7 0-15.5 3.2-6.9 3.1-11.8 8.6-4.9 5.4-7.4 12.7-2.6 7.3-2.6 15.4 0 7.8 2.2 15.5 2.2 7.8 6.6 14 4.5 6.3 11 10.2 6.6 3.9 15.2 3.9 8.7 0 15.6-3.5 7-3.4 11.8-9.2 4.8-5.8 7.3-13.4 2.6-7.5 2.6-15.6z"/>
						<path id="&lt;Compound Path&gt;" class="s4" d="m1089 491.2l-13.3 250.3-96.7 8.8-51.7-134-8.1 136.6h-83.1l6.7-261.7 92.3-4.4 63.8 132.8 3-125.5z"/>
						<path id="&lt;Compound Path&gt;" class="s4" d="m1320.2 720.4q-8.3 10.4-20.3 18.1-12.1 7.7-26 12.7-13.8 5.1-28.3 7.7-14.5 2.5-27.7 2.5-25.4 0-46.7-9.1-21.4-9.1-36.9-25.1-15.5-16-24.2-37.8-8.8-21.7-8.8-46.7 0-19.1 4.4-37.4 4.4-18.3 12.5-34.5 8.2-16.1 19.9-29.7 11.7-13.6 26.6-23.4 14.9-9.8 32.6-15.2 17.6-5.4 37.8-5.4 7.5 0 16.1 0.6 8.6 0.6 17.1 2.1 8.4 1.5 16.5 4.1 8.1 2.6 14.7 6.5l-4.9 66.8q-9.8-3.6-20.2-5-10.4-1.3-20.4-1.3-14 0-26.2 4.3-12.2 4.3-21.2 12.4-9 8-14.2 19.6-5.3 11.5-5.3 26.1 0 9.1 2.5 17.5 2.4 8.5 7.4 15.1 5 6.6 12.4 10.6 7.5 4 17.3 4 6.6 0 13.7-1.7 7.1-1.8 12.2-6l0.7-13.6-42-0.7 2.1-52.6q26.1-0.8 52.1-1.4 26.1-0.7 52.6-1.7z"/>
					</g>
					<path id="&lt;Path&gt;" class="s0" d="m593.5 434.7q-6-38-11.7-75.6c-3.8-25.1-7.6-50.6-11.2-75.8l-1.7-12 82.1-14.3 0.9 13.9c1.1 15.9 2.3 32.1 3.5 48.1 0.9 11.6 2.1 23.3 3.5 35l7.2-1.3q6-1 11.7-2.1 5.9-1.2 12.1-2.3l13.6-2.3 5.8 73.2-113.7 29.1z"/>
					<path id="&lt;Compound Path&gt;" fill-rule="evenodd" class="s0" d="m874.1 427.4c-7.4 0-14.6-1-21.3-2.9-6.7-1.8-13.1-4.5-18.9-7.9-5.9-3.5-11.3-7.7-16-12.5-4.8-4.9-8.9-10.3-12.3-16.2-3.3-5.9-5.9-12.3-7.7-18.9-1.9-6.8-2.8-13.9-2.8-21.2 0-7.1 0.8-14.1 2.5-20.9 1.8-6.8 4.3-13.3 7.5-19.4 3.2-6 7.2-11.6 11.7-16.7 4.6-5.1 9.9-9.6 15.6-13.3 5.8-3.7 12.1-6.7 18.9-8.7 6.8-2.2 14-3.2 21.5-3.2 11.6 0 22.4 1.8 32.1 5.5 10 3.7 18.6 9.2 25.7 16.2 7.1 7.1 12.7 15.6 16.6 25.5 3.8 9.7 5.7 20.5 5.7 32.2 0 7.4-0.9 14.6-2.6 21.4-1.7 6.9-4.2 13.4-7.4 19.5-3.2 6-7.2 11.7-11.9 16.7-4.7 5.1-10 9.6-15.8 13.2-5.9 3.6-12.3 6.5-19.2 8.5-6.9 2.1-14.2 3.1-21.9 3.1zm0-91.5q-2.3 0-3.9 0.7-1.6 0.8-2.7 2.1c-0.8 0.9-1.5 1.9-1.9 3.2-0.5 1.5-0.8 3.1-0.8 4.8 0 1.9 0.3 3.7 0.8 5.6 0.5 1.6 1.2 3.1 2.1 4.4 0.7 1 1.5 1.7 2.5 2.3 0.3 0.2 1 0.6 2.6 0.6 1.5 0 2.7-0.2 3.6-0.7 1.1-0.6 2-1.3 2.8-2.2 0.9-1.1 1.6-2.3 2.1-3.9 0.5-1.6 0.8-3.3 0.8-5 0-1.9-0.2-3.6-0.8-5.3-0.4-1.5-1.1-2.8-1.9-3.9-0.7-0.8-1.5-1.5-2.5-2.1q-1-0.6-2.8-0.6z"/>
					<path id="&lt;Path&gt;" class="s0" d="m1112.3 431.7c-9.9 1.3-19.6 0.7-28.7-1.9-9.1-2.5-17.3-6.6-24.6-12.2-7.2-5.6-13.3-12.6-18-20.8-4.8-8.3-7.9-17.5-9.3-27.5-1.6-12.5-1.4-24.6 0.8-36.2 2.1-11.9 6.3-22.7 12.3-32.3 6.2-9.7 14.4-18 24.5-24.5 10.1-6.4 22.2-10.6 35.9-12.5 5.1-0.6 10.5-0.9 15.9-0.8 6 0.1 11.9 1.1 17.3 2.9l7.8 2.5v64l-13-1.8q-2-0.3-4-0.2-2.3 0-4.6 0.3c-3.8 0.5-7.4 1.5-10.7 2.9-2.9 1.4-5.4 3-7.4 5.1-1.9 1.9-3.3 4.1-4.2 6.8-0.9 2.5-1.1 5.5-0.6 9.1 0.2 1.8 0.7 3.3 1.3 4.3 0.5 0.9 1 1.5 1.7 1.9 0.9 0.5 1.9 0.9 3.2 1.1q2.6 0.4 5.9 0 2.5-0.4 5.3-1.3 3.2-1.1 6.3-2.6 3.1-1.5 6-3.4 3-1.8 5.4-3.7l17.4-13.4 3.5 75.4-5.2 3.5c-2.8 2-6 3.9-9.4 5.5-3.1 1.6-6.5 3.1-9.9 4.4-3.4 1.3-6.9 2.4-10.5 3.3-3.5 1-7 1.7-10.4 2.1z"/>
					<path id="&lt;Compound Path&gt;" fill-rule="evenodd" class="s0" d="m1342.1 410.2c-8.2 0.1-16.1-0.7-23.6-2.7-7.3-1.9-14.4-4.7-20.9-8.3-6.6-3.6-12.6-8.1-18-13.3-5.3-5.2-10-11.1-13.8-17.5-3.8-6.4-6.8-13.3-9-20.6-2.2-7.4-3.5-15.2-3.6-23.2-0.2-7.8 0.6-15.6 2.3-23.1 1.7-7.5 4.2-14.7 7.6-21.4 3.4-6.7 7.6-13 12.5-18.7 5-5.7 10.6-10.8 16.9-15 6.2-4.3 13.1-7.7 20.5-10.2 7.4-2.4 15.3-3.8 23.6-4 12.7-0.3 24.6 1.5 35.4 5.3 11.1 3.8 20.7 9.6 28.7 17.2 8 7.5 14.3 16.8 18.8 27.5 4.5 10.6 6.9 22.5 7.1 35.4 0.2 8-0.5 16-2.2 23.5-1.7 7.6-4.3 14.9-7.7 21.6-3.4 6.8-7.7 13.1-12.6 18.7-5.1 5.8-10.8 10.8-17.2 14.9-6.3 4.2-13.3 7.5-20.8 9.9-7.5 2.4-15.6 3.8-24 4zm-2.3-100.6q-2.6 0-4.3 0.8c-1.2 0.6-2.1 1.4-3 2.3-0.8 1-1.5 2.2-1.9 3.7-0.6 1.6-0.8 3.3-0.8 5.2 0.1 2.1 0.4 4.1 1 6.1 0.6 1.8 1.4 3.4 2.4 4.8 0.8 1.1 1.8 1.9 2.9 2.6 0.3 0.1 1 0.5 2.9 0.5 1.6 0 2.8-0.3 3.9-0.9 1.2-0.6 2.2-1.4 3-2.4 0.9-1.2 1.7-2.7 2.2-4.3 0.6-1.8 0.8-3.7 0.8-5.6-0.1-2.1-0.4-3.9-1-5.8-0.6-1.6-1.3-3-2.2-4.2q-1.1-1.4-2.8-2.3-1.2-0.6-3.1-0.5z"/>
					<g id="&lt;Group&gt;">
						<path id="&lt;Compound Path&gt;" class="s1" d="m697.4 356.8l3.8 48.9-90.1 23.1q-5.9-37.9-11.6-75.5-5.8-37.6-11.2-75.7l56.4-9.8q1.7 24.2 3.6 48.3 1.8 24.1 5 48.3 5.2-0.6 10.2-1.5 5-0.9 10.1-1.8 6-1 11.9-2.2 5.8-1.1 11.9-2.1z"/>
						<path id="&lt;Compound Path&gt;" fill-rule="evenodd" class="s1" d="m946.5 342.2q0 9.6-2.2 18.5-2.2 8.9-6.3 16.7-4.2 7.8-10.2 14.3-5.9 6.5-13.3 11.1-7.5 4.6-16.2 7.2-8.8 2.6-18.6 2.6-9.4 0-18-2.4-8.6-2.4-16.1-6.8-7.5-4.4-13.5-10.6-6.1-6.1-10.4-13.7-4.2-7.5-6.6-16.1-2.4-8.7-2.4-18.1 0-9.1 2.2-17.9 2.2-8.8 6.4-16.6 4.2-7.8 10.1-14.4 5.9-6.5 13.2-11.2 7.3-4.8 15.9-7.4 8.5-2.6 18-2.6 15.3 0 27.8 4.7 12.6 4.7 21.5 13.5 8.9 8.8 13.8 21.3 4.9 12.5 4.9 27.9zm-46.7 2.7q0-4.5-1.4-8.8-1.3-4.2-3.8-7.5-2.5-3.4-6.3-5.4-3.7-2.1-8.6-2.1-4.9 0-8.8 1.8-3.9 1.8-6.7 4.9-2.8 3.1-4.3 7.3-1.5 4.2-1.5 8.8 0 4.4 1.3 8.8 1.3 4.5 3.8 8 2.5 3.6 6.3 5.8 3.7 2.3 8.7 2.3 4.9 0 8.9-2 3.9-1.9 6.7-5.3 2.7-3.3 4.2-7.6 1.5-4.3 1.5-9z"/>
						<path id="&lt;Compound Path&gt;" class="s1" d="m1139.8 273.3v42.6q-3-0.4-5.9-0.3-3 0.1-5.8 0.5-7.4 0.9-13.8 3.8-6.4 2.8-11 7.4-4.6 4.7-6.8 11-2.2 6.4-1.2 14.4 0.7 5.2 2.9 8.7 2.1 3.6 5.4 5.7 3.3 2.1 7.5 2.7 4.3 0.7 9.1 0 3.7-0.5 7.6-1.8 3.8-1.3 7.5-3.1 3.7-1.8 7.2-4 3.4-2.2 6.3-4.4l2.2 47.2q-3.6 2.5-8 4.7-4.3 2.1-8.9 3.9-4.6 1.7-9.3 3-4.7 1.2-9 1.8-12.6 1.6-24.2-1.6-11.5-3.2-20.6-10.3-9.1-7.1-15.2-17.5-6.1-10.5-7.8-23.3-2.2-16.9 0.6-32.6 2.9-15.7 10.8-28.3 8-12.5 21.1-20.9 13-8.4 31.2-10.8 6.8-0.9 14.2-0.8 7.3 0.2 13.9 2.3z"/>
						<path id="&lt;Compound Path&gt;" fill-rule="evenodd" class="s1" d="m1419.6 314.6q0.2 10.6-2 20.4-2.2 9.9-6.6 18.5-4.3 8.7-10.7 16-6.4 7.3-14.5 12.6-8 5.3-17.6 8.3-9.5 3.1-20.3 3.3-10.4 0.3-19.9-2.2-9.5-2.4-17.9-7.1-8.3-4.6-15.1-11.2-6.9-6.6-11.7-14.8-4.9-8.2-7.8-17.6-2.8-9.5-3-19.8-0.3-10.1 2-19.8 2.2-9.7 6.6-18.4 4.3-8.7 10.7-16 6.3-7.4 14.2-12.8 8-5.4 17.3-8.5 9.3-3.1 19.7-3.3 16.8-0.4 30.8 4.5 14 4.9 24 14.3 10 9.5 15.7 23.1 5.7 13.6 6.1 30.5zm-51.4 4.2q-0.1-5-1.7-9.6-1.5-4.7-4.4-8.3-2.9-3.6-7-5.7-4.2-2.2-9.5-2.1-5.5 0.2-9.7 2.2-4.2 2.1-7.2 5.6-3 3.5-4.5 8.1-1.6 4.6-1.4 9.7 0.1 4.9 1.6 9.7 1.5 4.8 4.3 8.7 2.9 3.9 7.1 6.2 4.1 2.4 9.6 2.2 5.4-0.1 9.7-2.3 4.3-2.3 7.3-6 2.9-3.7 4.4-8.5 1.5-4.8 1.4-9.9z"/>
					</g>
				</g>
			</g>
		</g>
	</g>
</svg>