<svg version="1.2" xmlns="http://www.w3.org/2000/svg" viewBox="0 0 618 402" width="618" height="402">
	<title>&lt;Group&gt;</title>
	<style>
		.s0 { fill: #000000 } 
		.s1 { fill: #00e7ff } 
		.s2 { fill: #ff3ef4 } 
		.s3 { fill: #7700f5 } 
		.s4 { fill: #f1e000 } 
		.s5 { fill: #080006 } 
		.s6 { fill: #23529c } 
		.s7 { fill: #ff278e } 
		.s8 { fill: #15386b } 
		.s9 { fill: #ff087e } 
		.s10 { fill: #ffffff } 
	</style>
	<g id="&lt;Group&gt;">
		<g id="&lt;Group&gt;">
			<g id="&lt;Group&gt;">
				<path id="&lt;Compound Path&gt;" fill-rule="evenodd" class="s0" d="m306.9 335.5q-0.7 0-1.4 0c-7.9-0.5-15.5-3.1-22.1-7.4-35.1-23.1-128.9-90.2-241.1-212.7-9.8-10.7-12.6-25.6-7.3-39 5.2-13.3 17.5-22.4 31.9-23.8 39.1-3.6 106.3-7.5 204.2-5.6 15.2 0.3 30.9 0.8 46.8 1.3q7.9 0.3 15.8 0.7c64 2.6 132.6 7.5 203.9 14.4 7.1 0.7 13.8 3.2 19.4 7.4 8.2 6.2 13.6 15.5 14.9 25.5 1.3 10.1-1.6 20-8 28-27 33.7-92.6 104.8-228.6 202.7-8.2 5.9-18.3 8.9-28.4 8.5zm10-255.5c-15.9-0.5-31.4-1-46.4-1.3-96.4-1.9-162.3 1.9-200.6 5.5-2.4 0.2-4.2 1.6-5.1 3.8-0.8 2.1-0.4 4.4 1.2 6.1 109.8 119.9 201 185.1 235.1 207.6 2 1.3 4.4 2.1 6.9 2.2 3 0.1 6-0.8 8.4-2.6 57.1-41.1 161.9-121.3 222.5-196.8q1.5-1.9 1.2-4.2c-0.2-1.6-1.1-3.2-2.4-4.2-0.9-0.6-1.9-1-3.2-1.2-40.5-3.9-80.5-7.2-119-9.7-28.3-1.9-56.3-3.4-83.1-4.6q-7.8-0.3-15.5-0.6z"/>
			</g>
			<g id="&lt;Group&gt;">
				<path id="&lt;Compound Path&gt;" fill-rule="evenodd" class="s0" d="m302.4 326.7c-6.8-0.5-13.6-2.6-19.5-6.6-34.9-23-128.3-89.8-240.2-211.8-8.4-9.2-10.8-22.1-6.2-33.6 4.5-11.5 15-19.4 27.5-20.5 39-3.7 106-7.6 203.7-5.6 20 0.4 41 1 62.4 1.9 63.9 2.7 132.4 7.5 203.6 14.4 6.2 0.6 12 2.9 16.8 6.5 7.1 5.3 11.7 13.3 12.9 22 1.1 8.6-1.4 17.2-6.9 24-26.8 33.5-92.1 104.2-227.6 201.8-7.8 5.6-17.2 8.1-26.5 7.5zm110.1-250.3c-28.5-1.9-56.3-3.4-83.2-4.6-21.3-0.8-42.1-1.5-62-1.9-96.7-1.9-162.8 2-201.2 5.5-4.4 0.4-7.9 3.1-9.5 7-1.6 4.1-0.7 8.4 2.2 11.6 110.2 120.3 201.8 185.8 236.1 208.4 6.4 4.2 14.9 4 21.2-0.5 57.3-41.2 162.5-121.8 223.5-197.7 2.4-3 2.6-6.1 2.3-8.2-0.4-3-2-5.8-4.5-7.6q0 0 0 0-2.5-1.9-5.7-2.2c-40.8-4-80.6-7.3-119.2-9.8z"/>
			</g>
			<g id="&lt;Group&gt;">
				<g id="&lt;Group&gt;">
					<g id="&lt;Group&gt;">
						<g id="&lt;Group&gt;">
							<g id="&lt;Group&gt;">
								<path id="&lt;Path&gt;" class="s1" d="m541.5 75.7c9.4 7 12.2 20.8 4.1 30.9-33.7 42.1-103.3 111.8-225.6 199.8-9.9 7.1-23.3 7.4-33.5 0.7-36.7-24.2-127.9-89.8-238.2-210.1-12.2-13.4-3.8-34.7 14.3-36.4 39-3.6 105.7-7.5 202.4-5.5q29.3 0.6 62.3 1.9c58.6 2.4 126.2 6.9 203 14.4 4.3 0.4 8.1 2 11.2 4.3z"/>
							</g>
						</g>
					</g>
				</g>
			</g>
			<path id="&lt;Path&gt;" class="s2" d="m359.3 142.1l-0.3 0.4 0.1-0.7z"/>
			<path id="&lt;Path&gt;" class="s3" d="m480.6 230l-0.6-0.5q0.3 0.2 0.6 0.5z"/>
			<g id="&lt;Group&gt;">
				<path id="&lt;Path&gt;" class="s4" d="m608.7 237.8v0.2c0 0.2-0.1 0.4-0.3 0.4-9.6 2.8-17.2 16.8-19.1 34.8 0 0.2-0.2 0.4-0.4 0.4-0.3 0-0.5-0.2-0.5-0.4-1.9-18-9.5-32-19.1-34.8-0.2 0-0.3-0.2-0.3-0.4v-0.2c0-0.2 0.1-0.3 0.3-0.4 9.6-2.8 17.2-16.8 19.1-34.8 0-0.2 0.2-0.4 0.5-0.4 0.2 0 0.4 0.2 0.4 0.4 1.9 18 9.5 32 19.1 34.8 0.2 0.1 0.3 0.2 0.3 0.4z"/>
			</g>
			<g id="&lt;Group&gt;">
				<path id="&lt;Path&gt;" class="s4" d="m617.6 185.1v0.1q0 0.1-0.2 0.2c-4.9 1.4-8.8 8.6-9.8 17.8 0 0.1-0.1 0.2-0.2 0.2-0.1 0-0.2-0.1-0.2-0.2-1-9.2-4.9-16.4-9.8-17.8q-0.2-0.1-0.2-0.2v-0.1q0-0.2 0.2-0.2c4.9-1.5 8.8-8.7 9.8-17.9 0-0.1 0.1-0.2 0.2-0.2 0.1 0 0.2 0.1 0.2 0.2 1 9.2 4.9 16.4 9.8 17.9q0.2 0 0.2 0.2z"/>
			</g>
			<g id="&lt;Group&gt;">
				<path id="&lt;Path&gt;" class="s4" d="m40.1 38.5v0.2c0 0.2-0.1 0.3-0.3 0.4-9.6 2.8-17.2 16.8-19.1 34.8 0 0.2-0.2 0.3-0.4 0.3-0.3 0-0.5-0.1-0.5-0.3-1.9-18-9.5-32-19.1-34.8-0.2-0.1-0.3-0.2-0.3-0.4v-0.2c0-0.2 0.1-0.4 0.3-0.4 9.6-2.8 17.2-16.9 19.1-34.8 0-0.3 0.2-0.4 0.5-0.4 0.2 0 0.4 0.1 0.4 0.4 1.9 17.9 9.5 32 19.1 34.8 0.2 0 0.3 0.2 0.3 0.4z"/>
			</g>
		</g>
		<path id="&lt;Path&gt;" class="s5" d="m175.8 132c-13.3 0-25.9-5.2-35.5-14.6l-0.9-1-17.7-17.7c-1.3-1.3-1.5-3.3-0.6-4.8 0.1-0.1 1.7-2.6 4.5-6.6q-0.1-0.7-0.2-1.3c-0.3-3.7-0.3-7.4 0.2-11 2.9-23.4 22.1-42 45.6-44.1q2.3-0.2 4.6-0.2 1.1 0 2.3 0c4.5-2.5 8.8-3.9 12.6-4.2q0.1 0 0.3 0c1 0 2 0.4 2.7 1.2l14.8 14.8q0.3 0.3 0.5 0.6c10 8.6 16.1 20.5 17.3 33.6 1.7 19.5-8 38.5-24.9 48.4q-0.1 0-0.2 0.1c-6.4 3.7-13.3 5.9-20.8 6.6q-2.3 0.2-4.6 0.2z"/>
		<path id="&lt;Path&gt;" class="s5" d="m271.2 127.7c-11.5 0-22.6-4.3-31.1-12.1-0.1 0-0.2-0.2-0.2-0.2l-19-18.9c-1.3-1.4-1.5-3.5-0.3-5.1l4.3-5.9q0.1-0.1 0.2-0.2c-1.1-12.3 2.7-24.3 10.6-33.7 7.9-9.5 19-15.4 31.4-16.5q2.1-0.2 4.3-0.2 1.5 0 3 0.1l5.3-5.4c0.7-0.7 1.7-1.1 2.7-1.1q0 0 0 0c1.1 0 2.1 0.4 2.8 1.1 0 0 18.1 18.1 18.1 18.1 8.1 7.8 13.2 18.2 14.2 29.4 1.7 18.5-7.8 36.2-24.1 45-5.6 3-11.6 4.8-17.9 5.4q-2.1 0.2-4.3 0.2z"/>
		<path id="&lt;Path&gt;" class="s5" d="m361.8 126.9c-12 0-23.4-4.6-32.1-12.9l-19.9-19.9c-1-1.1-1.4-2.7-0.9-4.1 0.5-1.4 1.8-2.4 3.3-2.5l3.8-0.4q-0.1-0.4-0.1-0.8-0.1-0.8-0.2-1.6c-1.1-12.3 2.6-24.3 10.5-33.9 8-9.5 19.1-15.3 31.4-16.5q2.2-0.2 4.3-0.2 3.9 0 7.6 0.7c0.2-1.9 0.4-2.9 0.4-3 0.2-1.4 1.2-2.7 2.6-3.1q0.6-0.2 1.3-0.2c1 0 2 0.4 2.7 1.1l16.8 16.8c8.5 7.8 13.7 18.4 14.8 29.9 1.6 17.8-7.3 35.1-22.7 44.2-5.9 3.5-12.4 5.6-19.3 6.2q-2.1 0.2-4.3 0.2z"/>
		<path id="&lt;Path&gt;" class="s5" d="m456.7 120.9c-13.3 0-25.8-5.1-35.3-14.3q-0.1-0.2-0.3-0.3l-0.9-1-17.7-17.6c-1.3-1.3-1.5-3.3-0.5-4.9 0.1-0.1 1.7-2.6 4.4-6.6q-0.1-0.7-0.1-1.4c-0.4-3.6-0.3-7.3 0.1-10.9 3-23.4 22.2-41.9 45.7-44.1q2.2-0.2 4.5-0.2 1.2 0 2.4 0.1c4.5-2.6 8.7-4 12.6-4.2q0.1 0 0.2 0c1 0 2 0.4 2.8 1.1l14.8 14.8q0.3 0.3 0.5 0.6c9.9 8.6 16 20.5 17.2 33.7 1.8 19.4-7.9 38.3-24.8 48.2q-0.1 0.1-0.2 0.2c-6.4 3.7-13.4 5.9-20.8 6.6q-2.3 0.2-4.6 0.2z"/>
		<g id="&lt;Group&gt;">
			<path id="&lt;Path&gt;" class="s5" d="m199.3 121.8c-5.7 3.3-12.2 5.4-19.2 6.1-14.2 1.3-27.6-4-37-13.2l-1-1-17.7-17.7c0 0 1.9-3 5.2-7.7q-0.2-1.4-0.3-2.7-0.5-5.2 0.2-10.1c2.6-21.3 19.8-38.7 42.1-40.7q3.8-0.4 7.4-0.1c4.2-2.5 8.3-4.1 12-4.3l14.8 14.8-0.1 0.2c9.2 7.7 15.5 18.8 16.7 31.7 1.7 18.7-7.9 35.8-23.1 44.7z"/>
			<path id="&lt;Path&gt;" class="s5" d="m291.5 118.7c-4.9 2.6-10.4 4.4-16.3 4.9-12.4 1.1-24-3.1-32.5-10.9l-0.1-0.1-2.7-2.7-16.2-16.2 4.3-5.9 1.1-1.2q0-0.7-0.1-1.4c-2.2-23.4 15.1-44.1 38.4-46.2q4.3-0.4 8.5 0l6.5-6.6 18 17.9v0.1c7.3 6.8 12.2 16.3 13.2 27 1.6 17.5-7.6 33.4-22.1 41.3z"/>
			<path id="&lt;Path&gt;" class="s5" d="m383.5 117.1c-5.3 3.1-11.3 5.2-17.8 5.7-12.7 1.2-24.7-3.4-33.3-11.6l-19.8-19.9 8-0.7q-0.6-2.4-0.9-4.8-0.1-0.7-0.1-1.4c-2.2-23.4 15-44.1 38.4-46.2 5.1-0.5 10.1 0 14.8 1.3 0.6-4.3 1-7.1 1-7.1l16.8 16.8c7.5 6.9 12.6 16.5 13.6 27.5 1.5 16.9-7 32.4-20.7 40.4z"/>
			<path id="&lt;Path&gt;" class="s5" d="m480.1 110.7c-5.7 3.3-12.2 5.5-19.1 6.1-14.3 1.3-27.6-3.9-37.1-13.2l-0.9-1-17.7-17.7c0 0 1.9-3 5.2-7.7q-0.2-1.3-0.3-2.7-0.5-5.1 0.1-10.1c2.7-21.3 19.9-38.7 42.2-40.7q3.7-0.3 7.4-0.1c4.2-2.5 8.2-4 11.9-4.3l14.8 14.9v0.1c9.2 7.7 15.5 18.8 16.6 31.7 1.8 18.7-7.8 35.9-23.1 44.7z"/>
		</g>
		<path id="&lt;Path&gt;" class="s5" d="m156.6 112.8c-26.3 0-48-19.8-50.4-46-2.5-27.8 18.1-52.5 45.9-55.1q2.3-0.2 4.6-0.2c26.3 0 48 19.8 50.4 46.1 1.2 13.4-2.9 26.6-11.5 37-8.7 10.4-20.9 16.8-34.3 18q-2.4 0.2-4.7 0.2z"/>
		<path id="&lt;Path&gt;" class="s5" d="m251.8 108.3c-24.1 0-43.9-18.2-46.1-42.2-1.1-12.4 2.6-24.4 10.5-33.9 8-9.5 19.1-15.4 31.5-16.5q2.1-0.2 4.2-0.2c24.1 0 44 18.1 46.2 42.2 1.1 12.3-2.6 24.3-10.6 33.9-7.9 9.5-19.1 15.3-31.4 16.5q-2.1 0.2-4.3 0.2z"/>
		<path id="&lt;Path&gt;" class="s5" d="m342.4 107.5c-24.1 0-43.9-18.1-46.1-42.2-1.2-12.3 2.6-24.4 10.5-33.9 7.9-9.5 19.1-15.4 31.4-16.5q2.2-0.2 4.3-0.2c24.1 0 44 18.1 46.1 42.2 1.2 12.3-2.6 24.4-10.5 33.9-7.9 9.5-19.1 15.4-31.4 16.5q-2.2 0.2-4.3 0.2z"/>
		<path id="&lt;Path&gt;" class="s5" d="m437.2 101.5c-26.3 0-48-19.8-50.4-46.1-1.2-13.4 2.9-26.6 11.6-37 8.6-10.4 20.8-16.8 34.3-18q2.3-0.2 4.6-0.2c26.4 0 48 19.8 50.4 46 1.2 13.5-2.9 26.6-11.5 37-8.7 10.4-20.9 16.8-34.3 18.1q-2.4 0.2-4.7 0.2z"/>
		<g id="&lt;Group&gt;">
			<g id="&lt;Group&gt;">
				<g id="&lt;Group&gt;">
					<path id="&lt;Path&gt;" class="s6" d="m203.2 57.9c2.4 25.7-16.6 48.5-42.3 50.8-25.7 2.4-48.4-16.6-50.8-42.3-2.3-25.7 16.6-48.4 42.3-50.8 25.7-2.3 48.5 16.6 50.8 42.3z"/>
					<path id="&lt;Path&gt;" class="s6" d="m294.2 58c2.1 23.4-15.1 44.1-38.5 46.2-23.3 2.1-44-15.1-46.1-38.5-2.2-23.3 15-44 38.4-46.2 23.4-2.1 44.1 15.1 46.2 38.5z"/>
					<path id="&lt;Path&gt;" class="s6" d="m384.8 57.2c2.1 23.4-15.1 44.1-38.5 46.2-23.4 2.2-44-15.1-46.2-38.4-2.1-23.4 15.1-44.1 38.5-46.2 23.4-2.2 44 15.1 46.2 38.4z"/>
					<path id="&lt;Path&gt;" class="s6" d="m483.8 46.6c2.4 25.7-16.6 48.4-42.3 50.8-25.7 2.3-48.4-16.6-50.8-42.3-2.3-25.7 16.6-48.5 42.3-50.8 25.7-2.4 48.5 16.6 50.8 42.3z"/>
				</g>
			</g>
		</g>
		<g id="&lt;Group&gt;">
			<path id="&lt;Path&gt;" class="s5" d="m410.3 255.4c-7.2 0-14-1.3-20.2-3.9-6.1-2.6-11.4-6.3-15.9-10.9l-19.4-19.4c-0.9-0.9-1.3-2.3-1-3.6l13.2-57.1c0.2-1.1 0.9-2 1.9-2.5l2.7-1.5c0.1-1.5 1-2.9 2.4-3.4q0.7-0.3 1.5-0.3c0.6 0 1.3 0.1 1.9 0.5l44-24.5c0.6-0.4 1.3-0.5 1.9-0.5 1 0 2 0.4 2.8 1.1l19.4 19.4c0.8 0.8 1.2 1.9 1.1 3.1l-1.8 25.6 8.1 8.1c0.7 0.8 1.1 1.7 1.1 2.7l0.9 46.8c0 0.9-0.3 1.8-0.9 2.5-2.4 3.1-5.4 5.8-9 8.1-3.5 2.2-7.2 4-11.1 5.4-3.9 1.5-7.9 2.5-11.9 3.3-4.1 0.7-8 1-11.7 1z"/>
			<path id="&lt;Path&gt;" class="s5" d="m451 235.2q-3.3 4.1-8.1 7.2-4.8 3.1-10.3 5.1-5.5 2-11.3 3-5.8 1-11 1-10.1 0-18.6-3.6-8.5-3.6-14.7-10l-19.4-19.4 4.5-19.6 8.7-37.5 4.7-2.7c0-1.3 0-2 0-2l1.3 1.3 46.5-25.8 19.4 19.4-1.9 26.6q-0.6-0.2-1.3-0.4l10.6 10.6z"/>
			<path id="&lt;Path&gt;" class="s5" d="m96.9 255.1c-4.1 0-8.3-0.1-12.6-0.4-4.4-0.3-8.8-0.9-13.1-1.6-4.5-0.7-8.9-1.7-13-2.9-4.3-1.3-8.4-2.8-12.2-4.7q-0.6-0.3-1.1-0.8l-19.4-19.4c-1-1-1.4-2.5-0.9-3.9l19.1-58.6-0.1-44.5c0-1.6 1-3 2.4-3.6 3.7-1.6 7.7-3 11.8-4.2 1.9-0.5 3.5-0.9 5-1.3q0.2-0.1 0.5-0.1 3.6-0.9 7.2-1.6c4.4-0.9 8.7-1.5 12.9-1.9 4.2-0.4 8.4-0.6 12.5-0.6q2.4 0 4.8 0.1l24.3-2.6q0.2-0.1 0.4-0.1c1.1 0 2 0.4 2.8 1.2l16 16q1.9 1.7 3.6 3.6c3.1 3.5 5.5 7.5 7.2 12.1 1.8 4.6 2.6 9.9 2.6 15.8 0 4-0.6 7.8-1.7 11.3-1.1 3.5-2.8 6.8-5 9.6q-0.4 0.5-0.8 1-0.2 0.7-0.8 1.3-2.4 2.7-5.5 4.8l5.2 5.3c2.1 1.7 4 3.6 5.6 5.6 2.7 3.3 4.8 7.1 6.2 11.3 1.5 4.2 2.2 8.7 2.2 13.4 0 5.9-1.1 11.1-3.3 15.5-2.3 4.4-5.2 8.1-8.9 11.1-2.1 1.7-4.4 3.3-7 4.6-1.7 1-3.5 1.8-5.3 2.5-4.4 1.8-9.1 3.2-13.9 4.2-4.8 1-9.6 1.7-14.4 2-4.7 0.3-9.2 0.5-13.3 0.5z"/>
			<path id="&lt;Path&gt;" class="s5" d="m159.1 214.7q0 8-2.9 13.7-2.9 5.8-7.8 9.8-2.9 2.5-6.4 4.3-2.3 1.3-4.9 2.3-6.4 2.6-13.3 4-7 1.4-13.9 1.9-7 0.5-13 0.5-6 0-12.4-0.4-6.4-0.5-12.7-1.5-6.3-1.1-12.5-2.8-6.1-1.8-11.6-4.5l-19.4-19.4 7.9-24.4 11.4-34.8-0.1-45.1q5.4-2.3 11.4-4 2.6-0.8 5.1-1.4h0.1q3.5-0.9 7.2-1.6 6.3-1.2 12.5-1.8 6.2-0.7 12.1-0.7 2.4 0 4.9 0.2l24.3-2.6 0.3-0.1 16.1 16.1q1.8 1.6 3.4 3.4 4.1 4.7 6.5 10.9 2.3 6.2 2.3 14.4 0 5.4-1.5 10.1-1.5 4.7-4.4 8.5c-0.4 0.5-0.9 1-1.4 1.5q0 0.2-0.2 0.3l0.2 0.2q-2.4 2.7-5.6 4.7-1.6 1.1-3.4 1.9l9 9q2.9 2.3 5.2 5.1 3.6 4.5 5.6 10.2 1.9 5.7 1.9 12.1z"/>
			<path id="&lt;Compound Path&gt;" fill-rule="evenodd" class="s5" d="m207.3 250.4c-4.8 0-9.4-0.6-13.7-1.8-4.2-1.2-8.3-2.9-12.1-5.1-3.7-2.2-7.2-4.9-10.2-8l-19.4-19.4c-1.1-1.1-1.5-2.7-0.9-4.1 0.5-1.5 1.8-2.5 3.4-2.6q0.3 0 0.6 0 1.2 0 2.7 0.3-1-5-1-10.3c0-4.6 0.5-9.1 1.6-13.5 1.1-4.4 2.7-8.6 4.8-12.5 2.1-3.9 4.7-7.5 7.6-10.7q1.5-1.7 3.1-3.2c2.4-3.7 6.9-6.1 10.4-7.4 2.7-1.4 5.5-2.6 8.5-3.6 4.3-1.3 8.9-2 13.7-2q4.4 0 8.6 0.6 1.1-3.2 3.5-6c0.7-0.7 1.7-1.2 2.8-1.2q0.1 0 0.1 0c1 0 2 0.4 2.8 1.1l19.4 19.4c4.5 4.5 8 9.9 10.5 16.2 2.4 6.3 3.7 13.3 3.7 20.9 0 4.7-0.6 9.3-1.7 13.8-1.1 4.4-2.7 8.6-4.8 12.5-2.1 3.9-4.6 7.5-7.6 10.8-3 3.3-6.4 6.1-10.1 8.4-3.8 2.3-7.9 4.2-12.3 5.5-4.4 1.3-9.1 1.9-14 1.9zm0-63.8q-1.5 0-2.7 0.3c-0.7 0.2-1.3 0.4-1.8 0.6-1.4 0.7-2.5 1.5-3.5 2.5q-1.4 1.6-2.2 3.8-0.8 2.2-0.8 4.8 0 2.6 0.8 5.1 0.7 2.5 2 4.4c0.9 1.3 2 2.2 3.2 3q1.7 1 4.1 1c1.7 0 3.2-0.3 4.5-1q2-1 3.4-2.6c1-1.2 1.7-2.6 2.2-4.1 0.6-1.7 0.9-3.3 0.9-5q0-2.6-0.8-5-0.7-2.3-2-4.1-1.3-1.7-3.2-2.7-1.7-1-4.1-1z"/>
			<path id="&lt;Compound Path&gt;" fill-rule="evenodd" class="s5" d="m253.9 197.5q0 6.6-1.6 12.8-1.5 6.3-4.4 11.7-2.9 5.4-7.1 9.9-4.1 4.6-9.3 7.8-5.2 3.2-11.3 5-6.1 1.8-12.9 1.8-6.6 0-12.6-1.7-6-1.7-11.2-4.7-5.2-3-9.5-7.3l-19.4-19.5c2-0.1 5.1 0.8 8.8 2.3q-0.7-1.8-1.2-3.7-1.6-6-1.6-12.5 0-6.4 1.5-12.6 1.6-6.1 4.4-11.5 3-5.5 7.1-10 1.5-1.8 3.2-3.3c1.6-2.7 5.1-4.9 9-6.4q3.8-2 8-3.3 6-1.9 12.6-1.9 6.2 0 11.7 1.2c0.1-2.7 1.1-5.4 3.3-7.8l19.4 19.4q6.2 6.1 9.7 14.8 3.4 8.7 3.4 19.5zm-32.7 1.9q0-3.2-0.9-6.2-0.9-2.9-2.6-5.3-1.8-2.3-4.4-3.7-2.6-1.4-6-1.4-1.9 0-3.6 0.3-1.4 0.3-2.6 0.9-2.7 1.3-4.7 3.4-1.9 2.2-2.9 5.1-1.1 2.9-1.1 6.1 0 3.1 0.9 6.2 0.9 3.1 2.7 5.6 1.7 2.5 4.3 4 2.6 1.6 6.1 1.6 3.5 0 6.2-1.4 2.8-1.4 4.7-3.7 1.9-2.3 2.9-5.3 1-3 1-6.2z"/>
			<path id="&lt;Compound Path&gt;" fill-rule="evenodd" class="s5" d="m258.3 252c-1 0-2-0.4-2.8-1.1l-19.4-19.4c-1.1-1.1-1.4-2.8-0.8-4.3 0.6-1.4 2-2.4 3.6-2.4h16.1l2-80.9c0.1-2.1 1.7-3.7 3.7-3.8l11.4-0.6c1.1-7.7 2.3-17.1 2.3-17.2 0.2-1.5 1.2-2.7 2.6-3.2q0.6-0.2 1.2-0.2c1.1 0 2 0.4 2.8 1.1l19.4 19.5q0.5 0.4 0.8 1l18.4 38.3 0.8-33.7c0-2.1 1.7-3.8 3.7-3.8l6.1-0.3c0.3-7.6 2.4-14 6.3-18.9 0.7-0.8 1.7-1.4 2.8-1.4q0.1 0 0.2 0c1 0 2 0.4 2.8 1.1l19.4 19.4c0.8 0.8 1.2 1.9 1.1 3l-5.3 99.6c-0.1 1.9-1.6 3.5-3.5 3.7l-38.5 3.5q-0.2 0-0.4 0c-1 0-2-0.4-2.7-1.1l-16.3-16.3-0.9 14.8c-0.1 2-1.8 3.6-3.9 3.6zm38.5-28.3l5-0.5-4.3-11.3z"/>
			<path id="&lt;Path&gt;" class="s5" d="m358.9 144v0.7l-5.3 98.9-38.5 3.5-19.4-19.4 11.5-1.1-12.6-32.8-3.3 54.4h-33l-19.4-19.5h19.9l2.1-84.7 14.7-0.7c1.1-8.2 2.6-20.5 2.6-20.5l19.5 19.4 25.4 52.9 1.2-50 9.8-0.3c-0.3-7.2 0.9-14.6 5.4-20.3z"/>
			<path id="&lt;Compound Path&gt;" fill-rule="evenodd" class="s5" d="m518.9 251.6c-3.1 0-6.1-0.2-9.1-0.6-3-0.5-5.9-1.1-8.7-2-5.5-1.6-10.8-4-15.7-7.1-3.2-2-6.3-4.3-9.1-6.9l-0.6-0.6q-1.6-1.4-3.1-3l-16.5-16.5c-1.1-1.1-1.5-2.8-0.9-4.3 0.6-1.2 1.7-2.1 3-2.3q-1.6-4.3-2.7-8.7c-1.5-6-2.3-12.3-2.3-18.8 0-6.3 0.7-12.6 2.1-18.7 1.4-6 3.5-11.8 6.2-17.2 2.7-5.4 6-10.5 9.8-15 3.8-4.5 8.2-8.5 13-11.8 2.2-1.6 4.5-2.9 6.8-4.1 1.5-0.8 2.9-1.5 4.4-2.1q0.1 0 0.2 0c1.3-0.6 2.7-1.1 4.2-1.6 5.7-1.9 11.7-2.8 17.9-2.8 8 0 15.5 1.1 22.4 3.2-0.3-1.6 0.4-3.3 1.9-4.1 0.6-0.3 1.2-0.5 1.9-0.5 1 0 2 0.4 2.7 1.2l17 16.9q1.4 1.3 2.6 2.6c5.8 6.1 10.3 13.7 13.5 22.4 3.2 8.6 4.8 18.3 4.8 28.9 0 6.6-0.7 13-2.2 19.2-1.4 6.1-3.5 11.9-6.2 17.3-2.6 5.4-6 10.4-9.8 15-3.9 4.5-8.3 8.4-13.2 11.7-4.8 3.2-10.2 5.8-15.9 7.6-5.7 1.8-11.9 2.7-18.3 2.7zm0.1-90.5q-3.7 0-6.5 1.4-2.8 1.4-4.9 3.9c-1.4 1.6-2.5 3.6-3.2 5.8-0.8 2.4-1.2 4.9-1.2 7.5 0 2.7 0.3 5.2 1 7.8 0.7 2.6 1.7 4.8 3 6.8q0.9 1.3 1.9 2.3 1.2 1.3 2.8 2.3c1.6 1 3.6 1.6 5.9 1.6 2.4 0 4.5-0.5 6.4-1.5q2.9-1.6 4.9-4.2 2.1-2.7 3.3-6.3c0.8-2.5 1.2-5.1 1.2-7.7 0-2.6-0.4-5.2-1.1-7.6-0.7-2.4-1.7-4.5-3-6.4q-1.8-2.6-4.6-4.2c-1.7-1-3.6-1.5-5.9-1.5z"/>
			<path id="&lt;Compound Path&gt;" fill-rule="evenodd" class="s5" d="m580.7 178.1c0 6.3-0.7 12.4-2.1 18.3q-2 8.8-5.8 16.5-3.9 7.7-9.4 14.1-5.5 6.4-12.3 11-6.9 4.6-15 7.2-8.1 2.5-17.1 2.5h-0.1q-4.4 0-8.6-0.6-4.1-0.6-8-1.8-8-2.4-14.9-6.7-4.5-2.8-8.5-6.5-0.3-0.2-0.6-0.5-1.5-1.4-2.9-2.9l-16.6-16.6h5.3q-3-6.4-4.8-13.5-2.2-8.5-2.2-17.8 0-9.1 2-17.8 2.1-8.7 5.9-16.4 3.8-7.7 9.3-14.2 5.4-6.5 12.2-11.1 3.1-2.2 6.4-3.9 2-1 4.1-1.9 0 0 0 0 2-0.8 4.2-1.5 7.8-2.6 16.6-2.6 14.1 0 25.8 4.6 1 0.5 2.1 1l-1.7-7 17 17q1.2 1.2 2.4 2.4 8.2 8.8 12.8 21.1 4.5 12.4 4.5 27.6zm-43.2 2.7q0-4.5-1.2-8.7-1.3-4.3-3.6-7.5-2.3-3.3-5.8-5.3-3.5-2.1-7.9-2.1-4.6 0-8.2 1.8-3.6 1.8-6.2 4.9-2.6 3-3.9 7.1-1.4 4.2-1.4 8.7 0 4.4 1.2 8.8 1.1 4.4 3.5 7.9 1 1.6 2.3 2.9 1.6 1.7 3.5 2.9 3.4 2.2 8 2.2 4.6 0 8.2-2 3.7-1.9 6.2-5.2 2.5-3.3 3.9-7.5 1.4-4.3 1.4-8.9z"/>
		</g>
		<path id="&lt;Compound Path&gt;" fill-rule="evenodd" class="s5" d="m75.3 234c-4 0-8.3-0.2-12.6-0.5-4.4-0.3-8.8-0.8-13.1-1.5-4.4-0.7-8.7-1.7-12.9-2.9-4-1.2-7.9-2.6-11.4-4.3q-0.5-0.2-1-0.5c-1.2-0.7-2.1-2-2.1-3.4l-0.2-123.8c0-1.6 1-3 2.5-3.6 3.7-1.5 7.6-2.9 11.8-4.1 4.1-1.2 8.4-2.2 12.7-3.1 4.3-0.8 8.6-1.4 12.9-1.8 4.2-0.5 8.4-0.7 12.5-0.7 4.6 0 9.4 0.3 14.2 0.9 4.9 0.6 9.6 1.6 14.1 3 4.5 1.5 8.8 3.3 12.8 5.6 3.9 2.3 7.4 5.1 10.3 8.3l0.4 0.4c3.1 3.5 5.5 7.6 7.3 12.2 1.7 4.6 2.6 9.9 2.6 15.8 0 4-0.6 7.8-1.8 11.3-1.1 3.5-2.8 6.7-5 9.6-2.2 2.8-4.9 5.3-8 7.3q-0.4 0.2-0.8 0.5 1.5 0.7 2.8 1.6c3.8 2.3 7.1 5.2 9.8 8.6 2.6 3.3 4.7 7.1 6.2 11.3 1.4 4.2 2.2 8.7 2.2 13.4 0 5.9-1.2 11.1-3.4 15.5-2.2 4.3-5.2 8-8.8 11-2 1.7-4.3 3.2-6.7 4.5q-2.7 1.5-5.6 2.7c-4.4 1.8-9.1 3.2-14 4.2-4.8 1-9.6 1.6-14.4 2-4.7 0.3-9.2 0.5-13.3 0.5zm-2-44.6q0.8 0.1 1.6 0.1 1.7 0 3.8-0.4c1.1-0.2 2.1-0.6 3.1-1.2q1.3-0.8 2.2-2.1 0-0.1 0.1-0.2c0.5-0.8 0.8-2.1 0.8-3.7q0-2.6-0.9-4-0.9-1.5-2.1-2.3-1.4-0.9-3-1.2-2.1-0.4-3.8-0.4-0.8 0-1.5 0.1zm0.4-41.9q0.5 0 1-0.1 2.7-0.3 5.2-1.4c1.5-0.6 2.7-1.5 3.7-2.7q1.2-1.5 1.2-4.5 0-1.7-0.6-2.8-0.7-1.3-1.8-2-1.1-0.9-2.4-1.3c-1.2-0.3-2-0.4-2.4-0.4q-1.3 0-2.6 0.4-0.4 0.2-0.9 0.3z"/>
		<path id="&lt;Compound Path&gt;" fill-rule="evenodd" class="s5" d="m185.7 228.9c-4.7 0-9.3-0.6-13.6-1.9-4.3-1.2-8.4-2.9-12.1-5.1-3.8-2.2-7.2-4.9-10.3-8-3-3.1-5.7-6.5-7.8-10.3-2.1-3.8-3.8-7.9-5-12.2-1.2-4.3-1.8-8.9-1.8-13.6 0-4.6 0.6-9.1 1.7-13.5 1.1-4.3 2.7-8.5 4.8-12.4 2-3.9 4.6-7.5 7.5-10.8 3-3.3 6.4-6.1 10-8.5 3.7-2.4 7.7-4.3 12-5.6 4.4-1.3 9-2 13.8-2 7.5 0 14.5 1.2 20.8 3.5 6.3 2.4 11.8 5.9 16.3 10.4 4.5 4.4 8.1 9.9 10.5 16.1 2.5 6.3 3.7 13.3 3.7 20.9 0 4.8-0.5 9.4-1.6 13.8-1.1 4.5-2.8 8.7-4.8 12.6-2.1 3.9-4.7 7.5-7.7 10.7-3 3.3-6.4 6.1-10.1 8.4-3.7 2.4-7.8 4.2-12.2 5.5-4.4 1.3-9.2 2-14.1 2zm0-63.8q-2.6 0-4.5 0.9c-1.3 0.6-2.5 1.4-3.4 2.5-1 1-1.7 2.3-2.2 3.7q-0.8 2.3-0.8 4.9 0 2.5 0.7 5.1 0.7 2.4 2.1 4.4c0.9 1.2 1.9 2.2 3.2 2.9 1.1 0.7 2.4 1 4.1 1 1.7 0 3.1-0.3 4.4-0.9 1.4-0.7 2.5-1.6 3.4-2.7q1.5-1.8 2.3-4.1 0.8-2.4 0.8-5 0-2.6-0.7-5c-0.5-1.5-1.2-2.9-2.1-4.1-0.8-1.1-1.9-2-3.1-2.7-1.2-0.6-2.6-0.9-4.2-0.9z"/>
		<path id="&lt;Path&gt;" class="s5" d="m236.7 230.5c-1 0-2-0.4-2.8-1.2-0.7-0.7-1.1-1.8-1.1-2.8l2.7-104.2c0-2 1.6-3.7 3.7-3.8 0 0 36.8-1.7 36.9-1.7 1.5 0 2.9 0.8 3.5 2.2l18.4 38.3 0.8-33.8c0.1-2.1 1.7-3.7 3.8-3.8 0 0 34.7-1.2 34.8-1.2 1 0 2 0.4 2.8 1.2 0.7 0.8 1.1 1.8 1.1 2.9l-5.3 99.6c-0.1 2-1.6 3.5-3.6 3.7l-38.5 3.5q-0.1 0.1-0.3 0.1c-1.6 0-3.1-1-3.6-2.5l-14.2-36.6-2.1 36.4c-0.1 2.1-1.9 3.7-3.9 3.7z"/>
		<path id="&lt;Compound Path&gt;" fill-rule="evenodd" class="s5" d="m388.7 233.9c-7.2 0-14-1.4-20.1-4-6.1-2.6-11.5-6.2-16-10.8-4.4-4.6-7.9-10.1-10.4-16.3-2.5-6.2-3.8-13-3.8-20.1 0-5.3 0.6-10.6 1.9-15.8 1.2-5.1 3-10 5.2-14.5 2.3-4.6 5.2-8.9 8.5-12.7 3.3-3.8 7.2-7.2 11.4-10 4.2-2.8 8.9-5 13.9-6.5 5.1-1.6 10.5-2.3 16.2-2.3 2.1 0 4.4 0 6.7 0.2 2.4 0.2 4.8 0.5 7.2 0.9q3.7 0.6 7.1 1.8c2.4 0.7 4.6 1.7 6.6 2.9 1.3 0.7 2.1 2.1 2 3.6l-2 26.6c-0.1 1.3-0.7 2.4-1.8 3-0.6 0.4-1.3 0.7-2.1 0.7q-0.7 0-1.3-0.3c-2.3-0.9-4.7-1.5-7.2-1.8-2.6-0.3-5.2-0.5-7.6-0.5-3.3 0-6.4 0.5-9.2 1.5-2.7 1-5.1 2.4-7.1 4.2q-0.3 0.3-0.6 0.6 0.3-0.1 0.6-0.1c6.9-0.2 13.9-0.4 20.8-0.6 6.9-0.2 13.9-0.4 20.8-0.7q0.1 0 0.2 0c1 0 1.9 0.4 2.7 1.1 0.7 0.7 1.2 1.7 1.2 2.8l0.8 46.8c0 0.9-0.3 1.8-0.8 2.5-2.5 3.1-5.5 5.8-9.1 8-3.4 2.2-7.1 4.1-11 5.5-3.9 1.4-7.9 2.5-12 3.2-4.1 0.7-8 1.1-11.7 1.1zm-1.2-41c1.3 0.7 2.9 1 4.7 1q2.2 0 4.5-0.6 0.4-0.1 0.8-0.2zm-4.5-24.5q-0.5 0.8-0.9 1.8c-1.2 2.5-1.7 5.5-1.7 8.7q0 3.1 0.8 6 0.4 1.4 1 2.7z"/>
		<path id="&lt;Compound Path&gt;" fill-rule="evenodd" class="s5" d="m497.3 230.1c-3.1 0-6.1-0.3-9.1-0.7-2.9-0.4-5.8-1.1-8.6-1.9-5.6-1.7-10.9-4.1-15.8-7.1-4.9-3.1-9.3-6.8-13.3-11.1-3.9-4.3-7.3-9.2-10.1-14.4-2.8-5.2-4.9-10.9-6.5-16.9-1.5-6-2.3-12.3-2.3-18.8 0-6.3 0.7-12.6 2.2-18.6 1.4-6.1 3.5-11.9 6.2-17.3 2.6-5.4 5.9-10.4 9.8-14.9 3.8-4.6 8.2-8.6 12.9-11.9 2.2-1.5 4.5-2.9 6.8-4.1q2.2-1.1 4.4-2 0 0 0 0 2.2-0.9 4.5-1.7c5.6-1.8 11.6-2.8 17.9-2.8 9.8 0 19 1.7 27.2 5 8.2 3.3 15.3 8.1 21.2 14.3 5.8 6.2 10.4 13.7 13.6 22.4 3.1 8.6 4.7 18.4 4.7 28.9 0 6.6-0.7 13.1-2.1 19.2-1.4 6.1-3.5 12-6.2 17.4-2.7 5.4-6 10.4-9.9 14.9-3.9 4.5-8.3 8.5-13.1 11.7-4.9 3.3-10.3 5.8-16 7.6-5.7 1.8-11.9 2.8-18.3 2.8zm0.1-90.5q-3.7 0-6.4 1.3c-2 1-3.6 2.3-5 3.9q-2.1 2.5-3.2 5.9c-0.8 2.4-1.2 4.9-1.2 7.5 0 2.6 0.4 5.2 1.1 7.7q1 3.8 3 6.8c1.2 1.9 2.7 3.4 4.6 4.6 1.7 1.1 3.6 1.6 5.9 1.6 2.5 0 4.6-0.5 6.4-1.5 2-1 3.6-2.4 5-4.1 1.4-1.8 2.5-4 3.2-6.4 0.8-2.4 1.2-5 1.2-7.7 0-2.6-0.3-5.1-1.1-7.6-0.6-2.4-1.6-4.5-2.9-6.3q-1.9-2.6-4.6-4.2c-1.7-1-3.7-1.5-6-1.5z"/>
		<g id="&lt;Group&gt;">
			<g id="&lt;Group&gt;">
				<path id="&lt;Compound Path&gt;" fill-rule="evenodd" class="s7" d="m137.6 193.6q0 7.9-3 13.7-2.9 5.8-7.8 9.8-2.8 2.3-6.1 4.1-2.4 1.4-5.2 2.5-6.4 2.5-13.3 4-6.9 1.4-13.9 1.9-6.9 0.5-13 0.5-5.9 0-12.3-0.5-6.4-0.4-12.8-1.4-6.3-1.1-12.4-2.9-5.7-1.6-10.9-4.1-0.4-0.1-0.8-0.3v-0.5l-0.2-123.3q5.4-2.2 11.5-4 6-1.7 12.3-2.9 6.3-1.2 12.6-1.9 6.2-0.6 12.1-0.6 6.8 0 13.7 0.9 7 0.8 13.4 2.9 6.5 2 12 5.2 5.4 3.1 9.4 7.5l0.4 0.4q4.2 4.7 6.5 11 2.4 6.2 2.4 14.4 0 5.4-1.6 10.1-1.5 4.7-4.4 8.4-2.9 3.8-7 6.4-4.1 2.6-9.3 3.9 6.2 1.6 11.4 4.8 5.1 3.2 8.7 7.7 3.6 4.5 5.6 10.2 2 5.6 2 12.1zm-67.9-41.9q2.2 0 5.5-0.4 3.3-0.4 6.3-1.7 3-1.3 5.2-3.8 2.1-2.6 2.1-7 0-2.8-1.2-4.7-1.1-2-2.8-3.3-1.7-1.2-3.7-1.8-1.9-0.6-3.5-0.6-1.9 0-3.7 0.6-1.8 0.6-3.6 1.4zm17.6 36.1q0-0.1 0-0.1 1.4-2.2 1.4-5.9 0-3.6-1.4-5.9-1.4-2.3-3.4-3.6-2-1.3-4.4-1.8-2.4-0.4-4.4-0.4-2.6 0-5 0.5-0.2 0-0.4 0.1l-0.4 21.9q1.5 0.3 2.9 0.5 1.4 0.3 2.7 0.3 2 0 4.4-0.5 2.4-0.4 4.5-1.7 2.1-1.3 3.5-3.4z"/>
			</g>
			<path id="&lt;Compound Path&gt;" fill-rule="evenodd" class="s7" d="m232.3 175.9q0 6.7-1.5 12.9-1.6 6.2-4.5 11.6-2.9 5.5-7 10-4.2 4.5-9.4 7.7-5.1 3.3-11.2 5.1-6.1 1.8-13 1.8-6.6 0-12.6-1.7-6-1.7-11.2-4.8-5.2-3-9.4-7.3-4.2-4.3-7.2-9.5-3-5.3-4.6-11.3-1.7-6.1-1.7-12.6 0-6.4 1.6-12.5 1.5-6.2 4.4-11.6 2.9-5.4 7-10 4.1-4.5 9.2-7.8 5.1-3.3 11.1-5.2 5.9-1.8 12.6-1.8 10.6 0 19.4 3.3 8.8 3.3 15 9.4 6.2 6.2 9.6 14.9 3.4 8.7 3.4 19.4zm-32.6 1.9q0-3.1-0.9-6.1-0.9-3-2.7-5.3-1.8-2.3-4.4-3.8-2.6-1.4-6-1.4-3.4 0-6.1 1.3-2.8 1.2-4.7 3.4-1.9 2.1-3 5-1 2.9-1 6.2 0 3.1 0.9 6.1 0.9 3.1 2.6 5.6 1.8 2.5 4.4 4.1 2.6 1.5 6.1 1.5 3.4 0 6.2-1.3 2.7-1.4 4.6-3.7 1.9-2.3 3-5.3 1-3.1 1-6.3z"/>
			<path id="&lt;Compound Path&gt;" class="s7" d="m337.4 122.4l-5.3 99.6-38.5 3.6-20.6-53.4-3.2 54.4h-33.1l2.7-104.2 36.7-1.8 25.4 52.9 1.2-49.9z"/>
			<path id="&lt;Compound Path&gt;" class="s7" d="m429.4 213.7q-3.3 4.1-8.1 7.2-4.8 3-10.3 5-5.5 2.1-11.3 3.1-5.8 1-11 1-10.1 0-18.6-3.6-8.5-3.7-14.7-10-6.1-6.4-9.6-15.1-3.5-8.6-3.5-18.6 0-7.6 1.7-14.9 1.8-7.2 5-13.7 3.3-6.4 7.9-11.8 4.7-5.4 10.6-9.3 6-3.9 13-6.1 7-2.2 15-2.2 3 0 6.5 0.3 3.4 0.2 6.8 0.8 3.3 0.6 6.5 1.7 3.2 1 5.9 2.5l-2 26.7q-3.9-1.5-8-2-4.2-0.5-8.1-0.5-5.6 0-10.4 1.7-4.9 1.7-8.5 4.9-3.6 3.2-5.7 7.8-2.1 4.6-2.1 10.4 0 3.6 1 7 1 3.4 3 6 2 2.6 4.9 4.2 3 1.6 6.9 1.6 2.6 0 5.5-0.7 2.8-0.7 4.8-2.4l0.3-5.4-16.7-0.3 0.8-20.9q10.4-0.4 20.8-0.6 10.4-0.2 20.9-0.7z"/>
			<path id="&lt;Compound Path&gt;" fill-rule="evenodd" class="s7" d="m559.1 156.5q0 9.5-2 18.3-2.1 8.8-5.9 16.5-3.8 7.8-9.3 14.2-5.5 6.4-12.4 11-6.9 4.6-14.9 7.1-8.1 2.6-17.2 2.6h-0.1q-4.3 0-8.5-0.6-4.2-0.6-8.1-1.8-7.9-2.4-14.8-6.8-6.9-4.3-12.5-10.4-5.6-6.1-9.6-13.5-3.9-7.5-6.1-16-2.2-8.6-2.2-17.9 0-9 2.1-17.7 2-8.7 5.8-16.5 3.9-7.7 9.3-14.1 5.5-6.5 12.3-11.2 3-2.1 6.3-3.8 2-1.1 4.1-1.9 0 0 0 0 2.1-0.9 4.2-1.6 7.9-2.6 16.7-2.6 14.1 0 25.7 4.7 11.6 4.7 19.9 13.4 8.2 8.7 12.7 21.1 4.5 12.3 4.5 27.5zm-54.6 24.4q3.6-2 6.2-5.2 2.5-3.3 3.9-7.6 1.3-4.3 1.3-8.9 0-4.4-1.2-8.7-1.2-4.2-3.6-7.5-2.3-3.3-5.7-5.3-3.5-2-8-2-4.6 0-8.2 1.7-3.6 1.8-6.1 4.9-2.6 3.1-4 7.2-1.3 4.1-1.3 8.7 0 4.4 1.1 8.8 1.2 4.3 3.5 7.9 2.4 3.5 5.8 5.7 3.5 2.2 8.1 2.2 4.5 0 8.2-1.9z"/>
		</g>
		<g id="&lt;Group&gt;">
			<g id="&lt;Group&gt;">
				<path id="&lt;Compound Path&gt;" class="s4" d="m178.6 65l1.5 19.5-35.9 9.2q-2.3-15.1-4.6-30.1-2.3-14.9-4.4-30.1l22.4-3.9q0.7 9.6 1.4 19.2 0.8 9.6 2 19.3 2.1-0.3 4.1-0.7 2-0.3 4-0.7 2.4-0.4 4.7-0.8 2.4-0.5 4.8-0.9z"/>
				<path id="&lt;Compound Path&gt;" fill-rule="evenodd" class="s4" d="m277.8 59.2q0 3.8-0.9 7.4-0.9 3.5-2.6 6.6-1.6 3.1-4 5.7-2.3 2.6-5.3 4.4-3 1.9-6.4 2.9-3.5 1-7.4 1-3.8 0-7.2-0.9-3.4-1-6.4-2.7-3-1.8-5.4-4.2-2.4-2.5-4.1-5.5-1.7-3-2.7-6.4-0.9-3.5-0.9-7.2 0-3.7 0.9-7.2 0.8-3.5 2.5-6.6 1.7-3.1 4-5.7 2.4-2.6 5.3-4.5 2.9-1.8 6.3-2.9 3.4-1 7.2-1 6 0 11.1 1.8 5 1.9 8.5 5.4 3.6 3.5 5.5 8.5 2 5 2 11.1zm-18.7 1.1q0-1.8-0.5-3.5-0.5-1.7-1.5-3-1-1.3-2.5-2.2-1.5-0.8-3.4-0.8-2 0-3.6 0.7-1.5 0.7-2.6 2-1.1 1.2-1.7 2.9-0.6 1.6-0.6 3.5 0 1.7 0.5 3.5 0.5 1.8 1.5 3.2 1 1.4 2.5 2.3 1.5 0.9 3.5 0.9 1.9 0 3.5-0.8 1.6-0.8 2.7-2.1 1.1-1.3 1.7-3 0.5-1.8 0.5-3.6z"/>
				<path id="&lt;Compound Path&gt;" class="s4" d="m354.7 31.8v16.9q-1.2-0.1-2.4-0.1-1.1 0.1-2.3 0.2-2.9 0.4-5.4 1.5-2.6 1.1-4.4 3-1.8 1.8-2.7 4.4-0.9 2.5-0.5 5.7 0.3 2 1.1 3.5 0.9 1.4 2.2 2.2 1.3 0.8 3 1.1 1.7 0.3 3.6 0 1.5-0.2 3-0.7 1.5-0.5 3-1.3 1.5-0.7 2.9-1.5 1.3-0.9 2.5-1.8l0.8 18.8q-1.4 1-3.1 1.8-1.7 0.9-3.6 1.6-1.8 0.7-3.7 1.2-1.8 0.5-3.6 0.7-5 0.7-9.6-0.6-4.6-1.3-8.2-4.1-3.6-2.8-6-7-2.5-4.1-3.1-9.2-0.9-6.8 0.2-13 1.2-6.3 4.3-11.3 3.2-5 8.4-8.3 5.2-3.4 12.4-4.3 2.7-0.4 5.7-0.3 2.9 0 5.5 0.9z"/>
				<path id="&lt;Compound Path&gt;" fill-rule="evenodd" class="s4" d="m466.1 48.2q0.1 4.2-0.8 8.1-0.9 4-2.6 7.4-1.8 3.5-4.3 6.4-2.5 2.9-5.8 5-3.2 2.1-7 3.3-3.8 1.2-8.1 1.3-4.1 0.1-7.9-0.9-3.8-0.9-7.1-2.8-3.3-1.8-6-4.5-2.7-2.6-4.7-5.9-1.9-3.2-3.1-7-1.1-3.7-1.2-7.8-0.1-4 0.8-7.9 0.9-3.9 2.6-7.3 1.8-3.5 4.3-6.4 2.5-2.9 5.7-5.1 3.1-2.1 6.8-3.4 3.8-1.2 7.9-1.3 6.7-0.2 12.3 1.8 5.5 1.9 9.5 5.7 4 3.8 6.3 9.2 2.2 5.4 2.4 12.1zm-20.5 1.7q0-2-0.6-3.8-0.7-1.9-1.8-3.3-1.1-1.5-2.8-2.3-1.7-0.9-3.8-0.8-2.1 0-3.8 0.8-1.7 0.9-2.9 2.3-1.2 1.3-1.8 3.2-0.6 1.8-0.6 3.8 0.1 2 0.7 3.9 0.6 1.9 1.7 3.5 1.2 1.5 2.8 2.5 1.7 0.9 3.8 0.8 2.2 0 3.9-0.9 1.7-0.9 2.9-2.4 1.2-1.5 1.8-3.4 0.6-1.9 0.5-3.9z"/>
			</g>
		</g>
		<g id="&lt;Group&gt;">
			<path id="&lt;Path&gt;" class="s5" d="m199.8 401.8q-0.9 0-1.8-0.4l-34.6-13c-1.6-0.6-2.7-1.8-3.2-3.4-0.4-1.5-0.1-3.2 0.8-4.5l23.2-31.3c0.9-1.3 2.4-2.1 4-2.1q0.1 0 0.1 0c1.6 0 3.1 0.7 4.1 1.9 5.8 7.3 11.7 14.7 17.5 22.2q2.6 3.5 5.3 7.1c1.4 1.8 1.4 4.3 0 6.2l-11.2 15.2c-1 1.3-2.6 2.1-4.2 2.1z"/>
			<path id="&lt;Path&gt;" class="s5" d="m249.4 339.8q-0.9 0-1.8-0.3l-34.6-13c-1.7-0.7-2.9-2.1-3.3-3.9-0.3-1.8 0.3-3.6 1.6-4.8 9.1-8.4 19.9-19.4 32.2-32.7l0.9-1.1c1-1 2.4-1.6 3.8-1.6q1 0 1.9 0.3l34.6 13.1c1.6 0.6 2.8 1.9 3.2 3.6 0.4 1.7-0.1 3.5-1.2 4.7l-1 1c-12.3 13.5-23.3 24.7-32.8 33.4-0.9 0.9-2.2 1.3-3.5 1.3z"/>
			<path id="&lt;Path&gt;" class="s5" d="m278.8 370.4q-0.9 0-1.8-0.4l-34.7-13q-1-0.4-1.9-1.3l-29.3-30.5c-1.7-1.7-2-4.4-0.6-6.5 1-1.4 2.6-2.3 4.3-2.3q0.9 0 1.8 0.3l34.7 13.1q1 0.4 1.9 1.3l29.3 30.5c1.7 1.7 2 4.4 0.6 6.4-1 1.5-2.6 2.4-4.3 2.4z"/>
			<path id="&lt;Path&gt;" class="s5" d="m282.8 305.8q-0.9 0-1.8-0.3l-34.6-13.1q-1.1-0.4-1.9-1.3c-1.5-1.5-2.9-2.9-4.3-4.4-7-6.8-15.6-13.9-25.7-21.1-2.2-1.6-2.8-4.4-1.6-6.7 0.9-1.7 2.7-2.7 4.6-2.7q0.9 0 1.8 0.3l34.6 13q0.7 0.3 1.2 0.7c12.9 9.2 23.5 18.3 31.5 26.9 1.7 1.7 1.9 4.4 0.6 6.4-1 1.5-2.7 2.3-4.4 2.3z"/>
			<path id="&lt;Path&gt;" class="s5" d="m165.2 388.7c-1 0-2.1-0.3-3-0.9-3.7-2.6-7.6-5.6-11.5-8.9-6.4-5.4-13.2-11.9-20.3-19.2-1.7-1.8-1.9-4.6-0.5-6.6 5.7-8.1 14.6-18.8 27.2-32.5-8.7-11-17.6-20.9-26.6-29.5-2.1-1.9-2.1-5.2-0.2-7.3 9.2-9.8 20.3-19.2 32.9-28.1 0.9-0.7 1.9-1 2.9-1 1.6 0 3.2 0.7 4.2 2.1 6.5 8.6 12.1 15.8 16.5 21.4l1 1.3q0.8 1.1 1.6 2 0.8 1.1 1.6 2c2.9-3.7 5.8-7.1 8.5-10.3 5.1-5.9 9.9-11.2 14.3-15.6 1-0.9 2.4-1.4 3.7-1.4 1 0 2.1 0.3 3 0.9 10.5 7.6 19.6 15.1 26.9 22.2 1.6 1.6 3.1 3.1 4.6 4.7 1.9 2 1.9 5.1 0.1 7.1l-1 1c-10.7 11.7-20.4 21.7-28.9 29.7l25.7 26.7c1.9 2 2 5 0.2 7-5.7 6.6-11.6 12.9-17.6 18.6-3.9 3.8-8 7.5-12 10.8l-0.7 0.7q-1 0.8-2 1.7c-1 0.7-2.1 1.1-3.3 1.1q-0.3 0-0.7 0c-1.4-0.2-2.6-0.9-3.5-2-0.5-0.7-0.9-1.3-1.3-1.8-1.8-2.4-3.6-4.7-5.4-7-4.3-5.7-8.7-11.3-13.1-16.8l-19.1 25.8c-1 1.4-2.6 2.1-4.2 2.1z"/>
			<path id="&lt;Path&gt;" class="s5" d="m247.1 401.5q-0.9 0-1.8-0.4l-34.7-13c-1.7-0.6-2.9-2.2-3.2-4-0.3-1.8 0.4-3.7 1.8-4.9q1-0.8 1.9-1.6l0.7-0.6c3.9-3.2 7.7-6.7 11.6-10.4 5.6-5.5 11.3-11.5 16.9-17.9 1-1.1 2.4-1.7 3.9-1.7q0.9-0.1 1.8 0.3l34.6 13c1.6 0.6 2.8 2 3.2 3.6 0.4 1.7 0 3.4-1.1 4.7-9.3 10.7-19.2 20.6-29.6 29.4q-1.3 1.1-2.7 2.3c-0.9 0.8-2.1 1.2-3.3 1.2z"/>
			<path id="&lt;Path&gt;" class="s5" d="m191.1 297c-1.5 0-3-0.6-3.9-1.8-1.6-1.9-3.6-4.3-5.9-7.2q-0.8-1-1.6-2.1l-1.1-1.3c-4.4-5.6-10-12.9-16.6-21.5-1.4-1.9-1.4-4.4 0-6.3 1-1.3 2.5-2.1 4.1-2.1q1 0 1.9 0.4l34.6 13c0.9 0.3 1.7 0.9 2.3 1.7q1.4 1.8 2.7 3.6c1.5 1.9 1.4 4.6-0.2 6.5-3.2 3.8-6.6 8-10.2 12.5q-1 1.3-2 2.6c-0.9 1.2-2.4 2-4 2q0 0-0.1 0z"/>
			<path id="&lt;Path&gt;" class="s5" d="m322.2 401.8q-0.9 0-1.8-0.3l-34.6-13.1c-1.5-0.5-2.7-1.8-3.2-3.4-0.4-1.5-0.1-3.2 0.9-4.5l23.1-31.3c0.9-1.3 2.4-2.1 4-2.1q0.1 0 0.2 0c1.5 0 3 0.7 4 1.9 5.8 7.3 11.7 14.7 17.5 22.3q2.7 3.4 5.3 7c1.4 1.8 1.4 4.4 0.1 6.2l-11.3 15.2c-1 1.4-2.6 2.1-4.2 2.1z"/>
			<path id="&lt;Path&gt;" class="s5" d="m371.8 339.9q-0.9 0-1.8-0.4l-34.6-13c-1.7-0.6-2.9-2.1-3.3-3.9-0.3-1.8 0.3-3.6 1.6-4.8 9.1-8.4 20-19.4 32.2-32.7l0.9-1c1.1-1.1 2.4-1.7 3.9-1.7q0.9 0 1.8 0.3l34.6 13.1c1.6 0.6 2.8 2 3.2 3.6 0.4 1.7 0 3.5-1.2 4.8l-0.9 1c-12.4 13.4-23.4 24.6-32.8 33.3-1 0.9-2.3 1.4-3.6 1.4z"/>
			<path id="&lt;Path&gt;" class="s5" d="m401.2 370.4q-0.9 0-1.8-0.3l-34.6-13.1q-1.1-0.4-1.9-1.2l-29.4-30.6c-1.7-1.7-1.9-4.4-0.6-6.4 1-1.5 2.6-2.4 4.3-2.4q1 0 1.9 0.4l34.6 13q1.1 0.4 1.9 1.3l29.4 30.5c1.6 1.8 1.9 4.5 0.5 6.5-0.9 1.5-2.6 2.3-4.3 2.3z"/>
			<path id="&lt;Path&gt;" class="s5" d="m405.3 305.8q-1 0-1.9-0.3l-34.6-13.1q-1.1-0.4-1.9-1.3c-1.4-1.5-2.8-2.9-4.3-4.3-6.9-6.8-15.6-14-25.7-21.2-2.1-1.5-2.8-4.4-1.6-6.7 1-1.7 2.7-2.7 4.6-2.7q0.9 0 1.8 0.3l34.6 13.1q0.7 0.2 1.2 0.6c13 9.3 23.6 18.3 31.6 26.9 1.6 1.8 1.8 4.4 0.5 6.4-1 1.5-2.6 2.3-4.3 2.3z"/>
			<path id="&lt;Path&gt;" class="s5" d="m287.6 388.8c-1 0-2-0.3-2.9-1-3.8-2.6-7.7-5.6-11.6-8.9-6.3-5.4-13.2-11.8-20.2-19.2-1.8-1.8-2-4.6-0.5-6.6 5.7-8.1 14.6-18.7 27.1-32.4-8.7-11-17.6-20.9-26.6-29.5-2-2-2.1-5.2-0.2-7.3 9.2-9.8 20.3-19.3 32.9-28.2 0.9-0.6 1.9-0.9 3-0.9 1.5 0 3.1 0.7 4.1 2 6.5 8.6 12.1 15.8 16.5 21.4l1 1.3q0.9 1.1 1.6 2.1 0.9 1 1.6 2c3-3.7 5.8-7.2 8.6-10.4 5-5.9 9.8-11.1 14.3-15.5 1-1 2.3-1.5 3.6-1.5 1.1 0 2.1 0.3 3 1 10.6 7.5 19.6 15 27 22.2q2.3 2.3 4.5 4.6c1.9 2 1.9 5.1 0.1 7.1l-1 1c-10.7 11.7-20.4 21.7-28.9 29.7l25.7 26.8c1.9 1.9 2 4.9 0.2 7-5.7 6.6-11.6 12.8-17.5 18.5-4 3.8-8 7.5-12 10.9l-0.7 0.6q-1.1 0.8-2.1 1.7c-1 0.8-2.1 1.2-3.3 1.2q-0.3 0-0.6-0.1c-1.4-0.1-2.7-0.9-3.6-2v-0.1q-0.7-0.9-1.3-1.7c-1.8-2.4-3.6-4.7-5.3-7-4.4-5.7-8.8-11.3-13.2-16.8l-19.1 25.9c-1 1.3-2.6 2.1-4.2 2.1z"/>
			<path id="&lt;Path&gt;" class="s5" d="m369.5 401.5q-0.9 0-1.8-0.3l-34.6-13.1c-1.8-0.6-3-2.2-3.3-4-0.3-1.8 0.4-3.7 1.8-4.8q1-0.8 2-1.7l0.7-0.6c3.8-3.2 7.7-6.7 11.5-10.4 5.7-5.4 11.4-11.4 16.9-17.8 1-1.2 2.4-1.8 3.9-1.8q0.9 0 1.8 0.3l34.6 13.1c1.6 0.6 2.8 1.9 3.2 3.5 0.5 1.7 0 3.4-1.1 4.7-9.3 10.8-19.2 20.7-29.5 29.4q-1.4 1.2-2.8 2.3c-0.9 0.8-2.1 1.2-3.3 1.2z"/>
			<path id="&lt;Path&gt;" class="s5" d="m313.5 297.1c-1.5 0-2.9-0.7-3.9-1.9-1.6-1.9-3.6-4.3-5.9-7.2q-0.8-0.9-1.6-2l-1.1-1.3c-4.4-5.8-10-13-16.6-21.6-1.4-1.9-1.4-4.4 0-6.3 1-1.3 2.6-2 4.2-2q0.9 0 1.8 0.3l34.6 13c0.9 0.4 1.7 1 2.3 1.8q1.4 1.8 2.7 3.5c1.5 1.9 1.4 4.7-0.1 6.5-3.3 3.8-6.7 8.1-10.3 12.6-0.6 0.8-1.3 1.7-1.9 2.5-1 1.3-2.5 2-4 2.1q-0.1 0-0.2 0z"/>
			<path id="&lt;Path&gt;" class="s5" d="m446.5 399.5q-4.5 0-9.2-0.1c-6.5-0.1-13.2-0.2-19.9-0.4q-0.9-0.1-1.7-0.4l-34.6-13c-2.4-0.9-3.8-3.4-3.3-5.9 0.5-2.4 2.7-4.2 5.1-4.2q0.1 0 0.2 0c6.5 0.3 13.1 0.4 19.7 0.5q4.5 0.1 8.9 0.1 3.1 0 6.1-0.1c13.6-0.1 25.7-0.6 35.9-1.6q0.2-0.1 0.5-0.1 0.9 0.1 1.8 0.4l34.6 13c2.3 0.9 3.7 3.2 3.4 5.6-0.4 2.4-2.3 4.2-4.7 4.4-11.9 1.2-26.2 1.8-42.8 1.8z"/>
			<path id="&lt;Path&gt;" class="s5" d="m411.7 386.4q-4.4 0-9 0c-6.7-0.1-13.4-0.3-19.9-0.5-2.9-0.1-5.1-2.4-5.1-5.3l0.3-12.1c0.4-22.7 0.7-40.7 0.8-55q0.1-5.2 0.2-9.9v-2.6c0.1-15.7 0.1-27.6-0.1-35.3-0.1-2.8 2-5.1 4.8-5.3 10.9-0.9 21.1-1.3 30.2-1.3 2.6 0 5.2 0 7.7 0.1 2.8 0.1 5 2.4 5 5.2v19.5 56.2l29.1-0.7q0.3 0 0.6 0c2.8 0 5.1 2.2 5.2 5 0.2 4.9 0.2 9.7 0.1 14.2-0.1 2.4-0.2 4.4-0.3 6.2-0.4 5.6-1.1 10.8-2 15.7-0.4 2.3-2.3 4-4.6 4.2-10.5 1-22.9 1.6-36.9 1.7q-3 0-6.1 0z"/>
			<path id="&lt;Path&gt;" class="s5" d="m488.8 397.8q-0.9 0-1.8-0.4l-34.6-13c-2.4-0.9-3.8-3.3-3.3-5.8 0.8-4.5 1.5-9.4 1.8-14.5 0.1-1.7 0.2-3.6 0.3-5.8 0.2-4.3 0.1-8.8 0-13.6-0.1-1.7 0.7-3.3 2.1-4.4 0.9-0.6 2-0.9 3-0.9q1 0 1.9 0.3l34.6 13c1.9 0.8 3.3 2.6 3.3 4.7 0.3 7.2 0.2 14.1-0.2 20.5-0.4 5.5-1.1 10.8-2 15.6-0.3 1.5-1.2 2.9-2.6 3.6-0.7 0.4-1.6 0.7-2.5 0.7z"/>
			<path id="&lt;Path&gt;" class="s5" d="m421.4 350.6c-1.4 0-2.7-0.5-3.7-1.5-1-0.9-1.5-2.3-1.5-3.7l0.1-61.5v-19.5c0-1.7 0.8-3.3 2.2-4.3 0.9-0.6 1.9-0.9 3-0.9q0.9 0 1.8 0.3l34.6 13.1c2 0.7 3.4 2.7 3.4 4.8l-0.1 67.2c0 2.8-2.3 5.1-5.1 5.2l-5.7 0.1q-4.8 0.1-9.5 0.2c0 0-19.5 0.5-19.5 0.5z"/>
			<g id="&lt;Group&gt;">
				<path id="&lt;Path&gt;" class="s8" d="m211.1 381.4l-11.3 15.2-34.6-13.1 7.6-10.3 15.5-20.9q8.8 10.9 17.5 22.1 2.6 3.5 5.3 7z"/>
				<path id="&lt;Path&gt;" class="s8" d="m282.9 300.6l-1 1q-18.5 20.2-32.5 33.1l-34.6-13.1q14-12.8 32.5-33 0.5-0.5 0.9-1z"/>
				<path id="&lt;Path&gt;" class="s6" d="m278.8 365.2l-34.6-13.1-29.4-30.5 34.6 13.1z"/>
				<path id="&lt;Path&gt;" class="s9" d="m282.9 300.6l-34.7-13q-2.1-2.3-4.4-4.6-10.7-10.4-26.3-21.7l34.6 13.1q19.1 13.7 30.8 26.2z"/>
				<path id="&lt;Path&gt;" class="s10" d="m214.8 321.6l29.4 30.5q-8.4 9.7-17.2 18.2-5.8 5.6-11.8 10.7-1.4 1.1-2.7 2.2-0.7-0.9-1.4-1.8-2.7-3.5-5.3-7-8.7-11.2-17.5-22.1l-15.5 20.9-7.6 10.3q-5.4-3.7-11.2-8.6-9.4-7.9-19.8-18.8 8.9-12.8 29.7-35.2-14.5-18.9-29.8-33.5 13.5-14.4 32-27.5 10 13.2 16.6 21.5 1.4 1.8 2.7 3.4 3.5 4.4 5.7 7 1-1.3 2-2.6 5.4-6.8 10.4-12.7 7.4-8.7 14-15.2 15.6 11.3 26.3 21.7 2.3 2.3 4.4 4.6-0.4 0.5-0.9 1-18.5 20.2-32.5 33z"/>
				<path id="&lt;Path&gt;" class="s8" d="m278.8 365.2q-13.8 15.9-29 28.8-1.4 1.2-2.7 2.3l-34.6-13.1q1.3-1.1 2.7-2.2 6-5.1 11.8-10.7 8.8-8.5 17.2-18.2z"/>
				<path id="&lt;Path&gt;" class="s9" d="m203.5 276.5q-5 5.9-10.4 12.7-1 1.3-2 2.6-2.2-2.6-5.7-7-1.3-1.6-2.7-3.4-6.6-8.3-16.6-21.5l34.7 13.1q1.4 1.8 2.7 3.5z"/>
				<path id="&lt;Path&gt;" class="s8" d="m333.5 381.4l-11.3 15.2-34.6-13 7.7-10.3 15.5-21q8.7 10.9 17.4 22.1 2.6 3.5 5.3 7z"/>
				<path id="&lt;Path&gt;" class="s8" d="m405.3 300.6l-1 1.1q-18.5 20.1-32.5 33l-34.6-13.1q14-12.8 32.5-33 0.5-0.5 1-1z"/>
				<path id="&lt;Path&gt;" class="s6" d="m401.2 365.2l-34.6-13-29.4-30.6 34.6 13.1z"/>
				<path id="&lt;Path&gt;" class="s9" d="m405.3 300.6l-34.6-13q-2.1-2.2-4.5-4.5-10.6-10.5-26.3-21.7l34.6 13q19.1 13.7 30.8 26.2z"/>
				<path id="&lt;Path&gt;" class="s10" d="m337.2 321.6l29.4 30.6q-8.3 9.6-17.2 18.2-5.8 5.5-11.8 10.6-1.3 1.2-2.7 2.3-0.7-1-1.4-1.9-2.7-3.5-5.3-7-8.7-11.2-17.4-22.1l-15.5 21-7.7 10.3q-5.4-3.8-11.1-8.7-9.4-7.9-19.9-18.8 8.9-12.7 29.7-35.2-14.5-18.8-29.8-33.5 13.5-14.3 32.1-27.5 10 13.2 16.5 21.5 1.4 1.8 2.7 3.4 3.5 4.4 5.7 7.1 1-1.3 2.1-2.6 5.3-6.9 10.3-12.7 7.5-8.8 14-15.2 15.7 11.2 26.3 21.7 2.4 2.3 4.5 4.5-0.5 0.5-1 1-18.5 20.2-32.5 33z"/>
				<path id="&lt;Path&gt;" class="s8" d="m401.2 365.2q-13.7 15.9-29 28.9-1.3 1.1-2.7 2.2l-34.6-13q1.4-1.1 2.7-2.3 6-5.1 11.8-10.6 8.9-8.6 17.2-18.2z"/>
				<path id="&lt;Path&gt;" class="s9" d="m325.9 276.6q-5 5.8-10.3 12.7-1.1 1.3-2.1 2.6-2.2-2.7-5.7-7.1-1.3-1.6-2.7-3.4-6.5-8.3-16.5-21.5l34.6 13.1q1.4 1.8 2.7 3.6z"/>
				<path id="&lt;Path&gt;" class="s8" d="m488.8 392.6q-20.7 2-51.5 1.6-9.4-0.1-19.7-0.4l-34.7-13.1q10.4 0.4 19.8 0.5 7.9 0.1 15.1 0 21-0.2 36.4-1.7z"/>
				<path id="&lt;Path&gt;" class="s10" d="m456.4 358.4q-0.1 3.1-0.3 6.1-0.6 8.1-1.9 15-15.4 1.5-36.4 1.7-7.2 0.1-15.1 0-9.4-0.1-19.8-0.5 0.1-2.9 0.2-5.8 0-3.2 0.1-6.3 0.6-32.1 0.8-55.1 0.1-6.6 0.2-12.5 0.1-24-0.1-35.4 20.9-1.7 37.4-1.2l-0.1 14v5.5 61.5q9.4-0.2 19.4-0.5 7.4-0.1 15.2-0.3 0.2-0.1 0.3 0 0.3 7.2 0.1 13.8z"/>
				<path id="&lt;Path&gt;" class="s6" d="m490.7 377.5q-0.6 8.1-1.9 15.1l-34.6-13.1q1.3-6.9 1.9-15 0.2-3 0.3-6.1 0.2-6.6-0.1-13.8l34.7 13q0.3 10.7-0.3 19.9z"/>
				<path id="&lt;Path&gt;" class="s6" d="m456.1 277.4v19.6l-0.1 47.6q-7.8 0.2-15.2 0.3-10 0.3-19.4 0.5v-61.5-5.5l0.1-14z"/>
			</g>
		</g>
	</g>
</svg>